<svg width="555" height="36" viewBox="0 0 555 36" fill="none" xmlns="http://www.w3.org/2000/svg">
<path fill-rule="evenodd" clip-rule="evenodd" d="M397.048 0.115428C396.867 0.237167 389.155 0.405762 379.909 0.490279C370.663 0.574358 359.87 0.755653 355.924 0.892282C345.36 1.25794 342.869 1.26932 342.111 0.95534C341.736 0.799443 341.274 0.776236 341.085 0.903668C340.64 1.20189 333.764 1.48565 320.826 1.73964C315.155 1.85131 310.286 2.03742 310.005 2.15391C309.724 2.27039 306.88 2.49329 303.684 2.64918C300.488 2.80508 297.78 3.09848 297.666 3.30123C297.552 3.50399 296.819 3.51669 296.035 3.32926C294.763 3.02535 293.082 2.99338 289.577 3.20752C288.794 3.25525 288.586 3.50661 288.888 4.04218C289.291 4.75597 289.239 4.75466 288.14 4.02247C287.17 3.37699 286.302 3.28503 283.284 3.50661C281.263 3.65507 278.216 3.75272 276.511 3.72338C274.598 3.69054 273.413 3.85957 273.413 4.16479C273.413 4.49629 272.714 4.55366 271.293 4.33952C270.127 4.16348 268.88 4.03955 268.521 4.06451C268.162 4.08904 265.667 4.14859 262.977 4.19676C260.286 4.24493 257.816 4.38506 257.489 4.50724C256.767 4.77699 254.771 4.91275 246.67 5.24249C243.262 5.38131 239.594 5.57399 238.517 5.6699C233.828 6.08942 228.385 6.40165 223.841 6.51156C221.151 6.57681 217.335 6.85839 215.362 7.1369C211.695 7.65495 203.756 8.13753 199.763 8.08498C198.538 8.06878 197.296 8.3105 197.002 8.62186C196.567 9.0821 196.465 9.08035 196.457 8.61354C196.447 8.07491 194.918 8.0968 189.924 8.70594C186.174 9.16399 182.575 9.48323 179.488 9.63256C177.515 9.72846 174.286 9.91501 172.313 10.0477C170.34 10.1808 166.818 10.3744 164.486 10.4782C162.154 10.5819 160.246 10.6941 160.246 10.7269C160.246 10.7913 159.254 10.9638 156.747 11.336C155.899 11.4621 152.963 11.6907 150.225 11.8444C144.857 12.1453 142.636 12.3178 142.636 12.4334C142.636 12.4737 140.874 12.5977 138.722 12.7089C132.468 13.0325 129.827 13.2445 126.003 13.7288C124.03 13.9788 120.801 14.3016 118.828 14.4461C116.855 14.591 114.086 14.7938 112.675 14.8971C111.264 15.0005 109.824 15.2764 109.477 15.5098C109.068 15.7839 108.417 15.7808 107.64 15.5014C106.853 15.2186 106.022 15.2172 105.244 15.4966C104.588 15.7322 102.46 15.9674 100.515 16.0191C98.5691 16.0707 96.2438 16.298 95.3469 16.5235C94.4501 16.7495 92.689 16.9873 91.4334 17.0525C86.064 17.3302 81.2699 17.8513 80.5661 18.2336C80.0913 18.4919 79.6621 18.4863 79.4162 18.2182C79.1612 17.9419 78.2793 17.941 76.9122 18.2156C75.7505 18.449 73.2198 18.7354 71.2871 18.8519C69.3538 18.968 67.5138 19.1707 67.1968 19.3025C66.8805 19.4339 65.3796 19.6257 63.8625 19.729C59.9953 19.9927 57.6002 20.2602 54.5809 20.766C53.1459 21.0064 51.4585 21.0975 50.8304 20.9683C50.2023 20.8391 49.6883 20.8943 49.6876 21.0914C49.6863 21.288 48.8384 21.4689 47.802 21.4934C46.7662 21.5175 45.3723 21.6883 44.7057 21.8726C44.0384 22.057 41.9688 22.2501 40.106 22.3013C38.2438 22.3526 36.3222 22.6158 35.8363 22.8864C35.3504 23.1574 34.3798 23.3891 33.6787 23.4022C29.604 23.4767 26.0949 23.8117 25.3872 24.194C24.9417 24.4353 23.6228 24.7694 22.4572 24.9367C21.291 25.104 20.3361 25.3733 20.3348 25.5344C20.3328 25.696 19.3792 25.8738 18.2149 25.9294C14.6321 26.1007 13.4802 26.3595 13.6883 26.9458C13.8337 27.3557 13.6563 27.3837 13.036 27.0483C11.8457 26.4046 8.30717 26.8499 6.71892 27.8435C5.98774 28.3007 4.91478 28.6747 4.33427 28.6747C2.90648 28.6747 -0.750072 31.1612 0.136998 31.529C0.514002 31.6858 0.645108 32.1894 0.427906 32.6487C-0.00845373 33.5714 0.69533 34.6798 1.34041 34.086C1.56479 33.8797 2.40881 33.4628 3.21565 33.1598C4.50973 32.6737 4.68323 32.7065 4.68323 33.437C4.68323 33.9025 5.26635 34.3675 6.01448 34.4989C7.13571 34.696 7.2753 34.583 6.89829 33.7856C6.65174 33.2644 5.97926 32.5765 5.40332 32.2568C4.48755 31.7475 4.5606 31.7055 5.98774 31.9205C6.88459 32.0554 7.82906 32.1688 8.08736 32.1719C8.345 32.1754 8.38674 32.4736 8.18063 32.8349C7.97386 33.1961 8.12975 33.4917 8.52698 33.4917C8.9242 33.4917 9.24903 33.3008 9.24903 33.0674C9.24903 32.8344 9.71865 32.7644 10.2933 32.9124C10.8673 33.0604 11.5971 32.9062 11.9141 32.5704C12.3838 32.0724 12.492 32.0926 12.5005 32.6785C12.5057 33.0744 13.0243 33.5434 13.6518 33.7207C15.3646 34.2051 20.2748 34.072 21.2766 33.5136C21.94 33.144 22.4135 33.1961 23.2034 33.7269C24.0487 34.2944 24.2509 34.3106 24.2509 33.8096C24.2509 33.4685 24.8119 32.8484 25.498 32.432C26.7106 31.695 26.7295 31.7191 26.1973 33.303C25.787 34.5261 25.8868 35.0901 26.5978 35.5679C27.869 36.4213 29.4664 35.9458 29.4788 34.7096C29.4859 34.0255 29.6568 33.888 30.0201 34.273C30.3293 34.5996 31.0357 34.7104 31.7069 34.5375C32.3422 34.3737 33.0564 34.4507 33.2938 34.7087C33.783 35.2407 38.6006 34.4126 38.6006 33.7965C38.6006 33.6003 38.3377 33.5491 38.0168 33.6822C37.6953 33.8158 37.2622 33.6257 37.0528 33.2601C36.7436 32.7188 36.9119 32.6816 37.9633 33.0591C38.6723 33.3139 39.2528 33.3866 39.2528 33.2202C39.2528 33.0542 39.8399 33.275 40.5574 33.7107C41.7308 34.4236 41.8619 34.4302 41.8619 33.7786C41.8619 33.3801 42.3021 33.0538 42.8403 33.0538C43.3784 33.0538 44.4565 32.6255 45.2366 32.1018C46.1563 31.4843 46.5157 31.3924 46.26 31.8404C45.6978 32.823 46.4146 33.1252 47.53 32.3759C48.7706 31.5435 49.6889 31.5675 49.6889 32.4333C49.6889 32.8147 50.0562 33.0394 50.5043 32.9325C50.953 32.8257 51.2426 32.2905 51.1487 31.7436C50.998 30.8625 51.1024 30.8178 52.0619 31.3525C53.0409 31.8977 53.1159 31.8198 52.8367 30.545C52.5902 29.4156 52.6998 29.2291 53.3853 29.6114C53.9012 29.8987 54.0845 30.5109 53.8451 31.1506C53.4753 32.139 53.6097 32.2051 55.7889 32.1066C58.1435 32.0002 59.0658 31.3648 58.4442 30.2775C58.2596 29.9547 58.5362 29.4529 59.0586 29.1617C59.8459 28.7233 60.082 28.8604 60.4447 29.9674C60.7773 30.986 61.2385 31.3022 62.3897 31.3022C64.006 31.3022 64.9674 30.3493 64.004 29.7025C63.659 29.4708 63.9753 29.0763 64.7756 28.7408C65.5212 28.4282 65.9373 28.3839 65.6992 28.6423C65.4455 28.9177 65.8075 29.1126 66.5707 29.1126C67.2881 29.1126 68.0565 28.9155 68.2783 28.6747C69.0962 27.7857 69.9226 28.267 69.5032 29.3885C69.1771 30.2604 69.2932 30.4916 69.98 30.3401C70.479 30.2302 70.978 29.6276 71.0888 29.0014C71.2923 27.8549 72.8904 26.5894 73.5642 27.0417C73.7637 27.1753 73.4291 27.7949 72.8212 28.4176C72.1566 29.099 72.0053 29.5505 72.4429 29.5505C72.8428 29.5505 73.1702 29.3955 73.1702 29.2059C73.1702 29.0163 74.0723 28.8148 75.1739 28.7583C76.4034 28.6957 77.0192 28.8288 76.7661 29.1034C76.1354 29.7887 77.4725 29.6346 78.3563 28.9195C78.7848 28.5727 79.5251 28.3892 80.0006 28.5118C80.4761 28.634 81.0345 28.5503 81.2419 28.3252C81.4486 28.1006 82.3246 28.0069 83.1882 28.1177C84.0518 28.2285 84.9565 28.1037 85.1991 27.84C85.7653 27.2248 90.1289 27.2112 90.1289 27.8247C90.1289 28.0796 90.4537 28.1536 90.8509 27.9889C91.3668 27.7748 91.3466 27.5957 90.7811 27.361C89.6879 26.9073 90.9318 26.4291 94.2687 26.0196C96.1531 25.788 97.1315 25.869 97.7896 26.3108C99.0635 27.1661 100.138 27.0754 99.6212 26.1567C99.2259 25.4539 99.2774 25.4486 100.245 26.0906C101.472 26.9051 103.825 26.7221 105.593 25.6746C107.262 24.6862 108.652 24.5229 108.166 25.3724C107.954 25.7438 108.065 26.0472 108.412 26.0472C108.76 26.0472 109.044 25.8283 109.044 25.5607C109.044 25.2415 109.831 25.1732 111.327 25.3615C113.309 25.6111 113.61 25.5353 113.61 24.7852C113.61 23.8765 116.791 21.8888 117.46 22.3788C117.674 22.5356 117.483 22.7519 117.034 22.8592C116.586 22.967 116.219 23.4141 116.219 23.8533C116.219 24.9349 118.473 24.5307 119.289 23.3028L119.898 22.3863L121.225 23.277C122.419 24.0793 122.723 24.1073 124.277 23.5608C125.786 23.0305 126.003 23.0383 126.003 23.6247C126.003 24.0035 126.57 24.2956 127.308 24.2956C128.025 24.2956 128.612 24.0985 128.612 23.8577C128.612 23.6168 129.346 23.4198 130.243 23.4198C131.14 23.4198 131.873 23.2017 131.873 22.935C131.873 22.6683 132.277 22.5544 132.771 22.6814C133.312 22.8207 133.635 22.6403 133.586 22.2269C133.537 21.8117 134.085 21.5087 134.975 21.4588C136.328 21.383 136.374 21.4509 135.544 22.3005C134.712 23.1535 134.762 23.2214 136.188 23.1798C137.039 23.1544 137.93 23.0029 138.168 22.843C138.407 22.6828 138.963 22.7528 139.404 22.9985C140.484 23.6002 143.786 22.6004 143.333 21.8091C142.933 21.1076 143.736 21.0493 144.718 21.7088C145.228 22.0513 145.803 22.0535 146.74 21.7167C147.76 21.3506 148.131 21.39 148.42 21.895C148.624 22.2518 149.332 22.5439 149.994 22.5439C151.694 22.5439 154.97 20.1416 154.468 19.2631C154.216 18.8217 154.328 18.6662 154.767 18.8484C155.152 19.0087 155.316 19.5302 155.13 20.008C154.726 21.0458 155.24 22.106 156.146 22.106C156.505 22.106 156.63 21.8104 156.423 21.4492C156.002 20.713 157.637 20.5212 158.29 21.2302C158.511 21.4711 159.189 21.6523 159.796 21.6335C160.475 21.6121 160.586 21.514 160.083 21.3782C159.635 21.2565 159.289 20.7301 159.314 20.2086C159.358 19.2898 159.378 19.2872 159.92 20.1354C160.229 20.6171 160.502 20.7533 160.527 20.438C160.552 20.1227 160.866 19.9865 161.225 20.1354C161.584 20.2843 161.886 20.1481 161.898 19.8328C161.91 19.486 162.307 19.6047 162.902 20.1332C163.746 20.8829 163.973 20.914 164.505 20.3522C164.846 19.9922 164.996 19.461 164.838 19.1725C164.674 18.8699 164.932 18.7451 165.448 18.8777C166.512 19.1523 167.248 20.2716 166.733 20.8317C166.252 21.3537 167.245 21.3366 169.402 20.7862C170.548 20.4936 171.015 20.1201 170.769 19.6914C170.565 19.3336 170.682 19.0406 171.029 19.0406C171.377 19.0406 171.661 19.2254 171.661 19.4514C171.661 20.3513 174.44 19.6743 175.031 18.6303C175.531 17.7462 175.764 17.6599 176.25 18.1797C176.579 18.5327 176.683 19.1812 176.479 19.6204C176.155 20.3185 176.383 20.3837 178.287 20.1354C179.486 19.9791 180.986 19.8543 181.622 19.8573C182.258 19.8609 182.607 19.6782 182.399 19.4518C182.19 19.2259 182.453 19.0406 182.983 19.0406C183.512 19.0406 184.069 19.2868 184.22 19.588C184.433 20.015 184.732 20.0036 185.575 19.5364C186.17 19.2071 187.25 19.0415 187.975 19.169C188.701 19.2964 189.712 19.1212 190.22 18.7792C190.788 18.3978 191.3 18.326 191.546 18.5927C192.09 19.1843 195.063 18.9754 195.915 18.2861C196.44 17.8618 196.267 17.7269 195.199 17.7269C193.935 17.7269 193.874 17.6271 194.601 16.7416C195.301 15.8899 195.444 15.8601 195.651 16.5227C195.782 16.9444 196.435 17.289 197.1 17.289C197.766 17.289 198.698 17.5487 199.172 17.8662C199.649 18.1854 201.788 18.4906 203.963 18.5497C207.332 18.6413 208.159 18.5025 209.768 17.5741C211.483 16.5844 213.89 16.4084 213.037 17.335C212.839 17.5504 212.963 17.7269 213.313 17.7269C213.662 17.7269 214.097 17.4804 214.278 17.1795C214.541 16.7416 214.617 16.7416 214.658 17.1795C214.739 18.0352 219.093 17.8684 219.833 16.9811C220.339 16.3742 220.636 16.3365 221.432 16.7806C222.215 17.2167 222.478 17.2124 222.75 16.76C222.987 16.3659 223.253 16.3379 223.629 16.668C223.925 16.9286 225.195 17.1257 226.451 17.106C228.38 17.0757 228.705 16.9277 228.546 16.1517C228.443 15.6468 228.829 14.972 229.403 14.6519C230.324 14.1387 230.397 14.2017 230.026 15.194C229.787 15.8338 229.909 16.4434 230.311 16.6102C230.699 16.7709 231.016 16.6873 231.016 16.4241C231.016 16.1456 231.767 16.0283 232.81 16.1434C233.796 16.252 234.604 16.3738 234.604 16.4132C234.604 16.4526 235.449 16.5778 236.482 16.6908C238.141 16.8721 238.318 16.7863 237.995 15.9577C237.656 15.0863 237.712 15.0692 238.777 15.716C240.206 16.584 241.452 16.6146 241.452 15.7821C241.452 15.4349 241.796 15.0088 242.216 14.8345C242.729 14.6217 242.842 14.7566 242.562 15.2466C242.255 15.783 242.505 15.9753 243.51 15.9753C244.593 15.9753 244.72 15.8513 244.129 15.3731C243.531 14.8892 243.708 14.771 245.027 14.771C245.987 14.771 246.67 15.0215 246.67 15.3731C246.67 16.1798 247.74 16.1417 248.211 15.3184C248.417 14.9571 248.963 14.6773 249.422 14.6961C250.077 14.7233 250.081 14.7785 249.443 14.9514C248.994 15.0732 248.627 15.36 248.627 15.5895C248.627 15.8356 249.16 15.8146 249.932 15.5374C250.649 15.2794 251.236 15.2295 251.236 15.4266C251.236 16.2704 254.83 15.9091 256.881 14.859C258.975 13.7861 259.063 13.7774 259.063 14.6392C259.063 15.7694 261.326 15.8623 262.272 14.771C262.642 14.3458 262.946 14.2481 262.957 14.5521C262.968 14.8695 263.827 15.0994 265.003 15.0994C266.401 15.0994 266.929 14.9221 266.704 14.5288C266.281 13.7883 270.822 13.5343 271.491 14.2613C271.75 14.5429 272.304 14.6326 272.72 14.4597C273.271 14.2306 273.283 13.9889 272.761 13.5668C272.333 13.2204 272.29 12.8862 272.655 12.7347C272.99 12.5955 273.426 12.8963 273.623 13.4025L273.982 14.323L275.918 13.3977C278.184 12.3143 278.91 12.2281 278.411 13.1004C278.214 13.4463 278.403 13.8247 278.831 13.9416C279.259 14.059 279.037 14.1702 278.338 14.189C277.563 14.21 277.308 14.3765 277.685 14.6147C278.026 14.8297 279.25 14.9068 280.405 14.7859C282.076 14.6107 282.475 14.3747 282.361 13.6285C282.277 13.075 282.552 12.7356 283.034 12.8004C283.483 12.8608 283.854 12.6638 283.859 12.3625C283.866 11.9977 284.08 12.0341 284.501 12.472C284.849 12.8333 285.143 12.9318 285.154 12.6909C285.165 12.4501 285.42 12.5144 285.722 12.8337C286.024 13.1529 287.482 13.5234 288.963 13.6565C291.241 13.8619 291.864 13.7384 293.006 12.8573C294.227 11.9141 294.32 11.8996 293.994 12.7067C293.726 13.3706 293.966 13.6219 294.938 13.692C296.986 13.8391 298.371 13.8286 300.482 13.6504C301.558 13.5593 303.319 13.4476 304.395 13.4025C306.18 13.3272 306.25 13.2681 305.196 12.7308C304.1 12.1733 304.11 12.1291 305.359 11.9097C306.21 11.7604 306.678 11.8913 306.678 12.2802C306.678 12.6266 307.081 12.7789 307.625 12.6384C308.146 12.5044 308.93 12.5429 309.367 12.7242C309.805 12.9059 311.36 13.0163 312.823 12.9699C314.287 12.9235 316.877 12.8416 318.582 12.7881C320.548 12.7264 321.68 12.4908 321.68 12.1435C321.68 11.8099 322.572 11.5962 323.963 11.5962C325.219 11.5962 326.246 11.805 326.246 12.0599C326.246 12.3148 326.552 12.3967 326.927 12.2412C327.301 12.0857 328.028 12.1935 328.544 12.4803C329.191 12.8411 330.037 12.8762 331.287 12.5933C332.281 12.3686 334.227 12.2648 335.61 12.3625C337.385 12.4877 337.99 12.3923 337.665 12.0389C337.381 11.731 337.592 11.5909 338.211 11.6763C338.765 11.7525 339.69 11.421 340.267 10.9393C341.301 10.0757 341.31 10.077 340.911 11.0488C340.622 11.7551 340.787 12.0341 341.492 12.0341C342.032 12.0341 342.669 11.8234 342.906 11.5664C343.143 11.3089 343.747 11.2042 344.249 11.3334C344.756 11.4639 345.161 11.3032 345.161 10.9726C345.161 9.84275 347.083 9.83969 348.184 10.9677C349.065 11.8703 349.708 12.0446 351.844 11.9601C353.302 11.9023 354.583 11.5979 354.774 11.2638C354.961 10.9371 355.553 10.7834 356.09 10.9218C356.628 11.0601 357.521 10.9235 358.076 10.6183C358.943 10.1414 359.032 10.2014 358.707 11.0488C358.499 11.5905 358.414 12.0341 358.519 12.0341C359.182 12.0341 362.415 10.6787 362.89 10.2018C363.252 9.83794 363.315 10.0578 363.059 10.7978L362.655 11.9706L368.36 11.8024C371.497 11.7096 374.356 11.4385 374.712 11.1994C375.069 10.9603 375.537 10.0319 375.754 9.1364C375.971 8.24087 376.517 7.42548 376.967 7.32476C377.596 7.18376 377.629 7.41716 377.109 8.33502C376.737 8.99102 376.578 9.62511 376.755 9.74378C376.931 9.86246 376.783 10.328 376.424 10.7777C375.918 11.4118 375.997 11.5962 376.773 11.5962C377.323 11.5962 377.774 11.4114 377.774 11.1854C377.774 10.9594 378.288 10.7961 378.916 10.8228C379.543 10.8491 380.686 10.7313 381.456 10.5614C382.296 10.3761 383.208 10.4773 383.739 10.8149C385.169 11.7249 387.163 11.4753 387.994 10.2824L388.757 9.18764L388.81 10.4063C388.862 11.6189 388.88 11.6237 392.613 11.4135C394.676 11.2975 397.738 11.1924 399.418 11.1801C401.96 11.1617 402.547 10.9997 402.92 10.211C403.317 9.36981 403.436 9.34572 403.977 9.99515C404.452 10.5649 404.866 10.6253 405.856 10.2697C406.728 9.95661 407.126 9.95573 407.126 10.2671C407.126 10.5163 407.566 10.7203 408.104 10.7203C408.642 10.7203 409.082 10.9099 409.082 11.1416C409.082 11.8129 421.258 11.386 422.551 10.6691C423.448 10.1725 423.696 10.1677 423.934 10.6428C424.147 11.0663 424.683 10.9485 425.928 10.2049C426.866 9.64525 427.232 9.53709 426.744 9.96449C425.643 10.9275 426.305 11.4819 427.656 10.7291C428.464 10.2785 428.654 10.2872 428.671 10.7764C428.685 11.1801 429.003 11.1009 429.642 10.5333C430.165 10.0692 430.788 9.81998 431.025 9.97894C431.262 10.1383 431.871 9.92683 432.377 9.50907C433.052 8.95248 433.389 8.89643 433.639 9.29974C433.826 9.60234 434.322 9.73327 434.739 9.59008C435.157 9.44732 434.798 9.71357 433.943 10.1817C432.939 10.7308 432.643 11.1394 433.108 11.3325C433.506 11.4972 434.479 11.1315 435.271 10.5193C436.802 9.3374 438.811 8.99145 438.229 10.01C437.889 10.603 438.888 11.5962 439.823 11.5962C440.086 11.5962 440.43 11.1525 440.588 10.6108C440.871 9.64701 440.887 9.64526 441.331 10.5307C441.744 11.3527 442.246 11.4276 446.795 11.3422C449.55 11.2905 451.878 11.2068 451.968 11.1565C452.461 10.8784 457.904 10.9555 459.223 11.259C460.21 11.4862 461.113 11.4236 461.718 11.0864C462.348 10.7357 462.815 10.7085 463.106 11.0058C463.915 11.8304 466.394 11.9758 467.272 11.2502C467.988 10.659 467.943 10.5986 466.97 10.8434C466.262 11.0216 465.829 10.9222 465.829 10.5806C465.829 9.60103 468.283 9.84013 468.7 10.8605C469.027 11.6601 469.194 11.7087 469.733 11.1582C470.085 10.797 470.379 10.7265 470.385 11.0019C470.4 11.7512 472.28 12.0906 473.664 11.5935C474.364 11.3417 475.034 11.322 475.242 11.5471C475.673 12.0165 480.895 11.8922 482.122 11.3829C482.698 11.1438 482.834 11.1915 482.527 11.5256C482.228 11.8497 482.597 12.0214 483.567 12.0091C485.013 11.9907 489.636 12.3489 489.636 12.4794C489.636 12.5145 491.031 12.6042 492.734 12.6795C494.438 12.7549 495.834 12.6896 495.835 12.5346C495.837 12.38 497.157 12.2355 498.77 12.2145C500.929 12.1856 501.703 12.3437 501.703 12.8127C501.703 13.2291 502.144 13.3723 502.976 13.2265C503.677 13.1034 504.387 13.2282 504.555 13.5037C504.724 13.7791 504.885 13.6456 504.913 13.2072C504.96 12.482 505.057 12.472 505.989 13.0977C506.955 13.7459 507.615 13.84 512.468 14.0226C513.546 14.0633 515.062 14.2315 515.837 14.3966C516.613 14.5621 517.429 14.4995 517.651 14.2582C517.908 13.9793 518.626 13.9648 519.62 14.2184C520.709 14.4964 521.28 14.4583 521.502 14.0922C521.677 13.8032 521.843 13.9114 521.871 14.3331C521.899 14.7548 522.143 15.1069 522.412 15.1161C524.471 15.1857 528.322 15.7042 529.261 16.0379C530.19 16.3685 530.404 16.2586 530.412 15.4432C530.42 14.6366 530.545 14.57 531.054 15.0994C531.575 15.6403 531.688 15.6468 531.697 15.1358C531.702 14.7947 531.892 14.6401 532.118 14.792C532.345 14.944 533.079 14.8717 533.749 14.6309C535.153 14.1264 535.194 14.2048 534.332 15.7278C533.834 16.6059 533.898 16.8511 534.62 16.8511C535.128 16.8511 535.717 16.6628 535.929 16.4324C536.361 15.9621 538.321 16.3322 538.996 17.0118C539.239 17.2553 540.228 17.5263 541.196 17.6131C542.163 17.7002 543.373 18.0523 543.885 18.396C544.634 18.8992 545.064 18.9172 546.088 18.4876C546.788 18.1942 547.361 17.8219 547.361 17.6603C547.361 17.2562 548.702 17.4431 550.459 18.0917C551.576 18.5042 551.927 18.5095 551.927 18.1123C551.927 17.8005 552.452 17.9104 553.235 18.3864C555.175 19.5648 555.609 18.8217 554.07 16.9557C553.032 15.6972 552.863 15.067 553.337 14.2315C553.761 13.4835 553.726 13.0934 553.224 12.9813C552.823 12.8915 552.216 12.327 551.876 11.7266C551.537 11.1267 550.695 10.5368 550.007 10.416C549.319 10.2951 548.611 9.94391 548.435 9.63562C548.085 9.02255 536.112 6.47083 535.041 6.78088C534.901 6.82116 534.561 6.60746 534.284 6.30618C534.007 6.00534 531.038 5.41372 527.688 4.99201C524.338 4.56986 520.863 4.10962 519.966 3.96861C519.069 3.8276 516.721 3.60252 514.748 3.46895C512.775 3.33495 510.592 3.11337 509.897 2.9763C509.201 2.8388 507 2.66845 505.005 2.59751C503.009 2.52613 500.643 2.33827 499.746 2.17974C498.849 2.02122 495.621 1.82372 492.571 1.74052C489.522 1.65731 487.027 1.56097 487.027 1.52681C487.027 1.49266 485.779 1.38843 484.255 1.2956C482.556 1.19225 481.483 1.30961 481.483 1.59819C481.483 1.91743 481.189 1.90605 480.573 1.56272C480.073 1.28377 477.285 1.0241 474.377 0.985997C471.469 0.947461 469.09 0.806452 469.09 0.672451C469.09 0.538888 464.32 0.376861 458.491 0.312488C452.661 0.248553 447.451 0.187245 446.913 0.176297C446.375 0.16535 444.027 0.226656 441.695 0.312049C439.363 0.397442 436.722 0.344455 435.825 0.194252C434.928 0.0440483 433.241 0.0641913 432.074 0.23848C430.908 0.413207 429.955 0.393062 429.955 0.193375C429.955 -0.00631275 429.148 -0.0601751 428.161 0.0733879C425.632 0.415397 402.736 0.488091 399.805 0.163598C398.47 0.0155841 397.23 -0.00587379 397.048 0.115428ZM454.731 9.06459C454.736 9.23756 454.318 9.2704 453.803 9.13772C453.288 9.00503 453.035 8.6004 453.242 8.23868C453.547 7.70399 453.72 7.69042 454.169 8.16555C454.472 8.48698 454.725 8.89117 454.731 9.06459ZM329.557 8.42129C329.585 8.60171 329.705 9.09568 329.826 9.51826C329.946 9.94084 329.812 10.19 329.529 10.0722C328.75 9.74948 328.238 8.09286 328.916 8.09286C329.241 8.09286 329.529 8.24087 329.557 8.42129ZM405.169 8.28598C405.169 8.39239 404.875 8.60084 404.517 8.74973C404.158 8.89862 403.864 8.81147 403.864 8.55661C403.864 8.30174 404.158 8.09286 404.517 8.09286C404.875 8.09286 405.169 8.17957 405.169 8.28598ZM379.405 9.8445C379.627 10.0854 379.497 10.2824 379.117 10.2824C378.738 10.2824 378.426 10.0854 378.426 9.8445C378.426 9.60365 378.556 9.40659 378.714 9.40659C378.873 9.40659 379.183 9.60365 379.405 9.8445ZM322.332 10.4755C322.332 10.5819 322.039 10.7904 321.68 10.9393C321.321 11.0882 321.028 11.001 321.028 10.7462C321.028 10.4913 321.321 10.2824 321.68 10.2824C322.039 10.2824 322.332 10.3691 322.332 10.4755ZM326.069 10.5469C325.853 10.6923 325.29 10.7081 324.819 10.5815C324.299 10.4418 324.453 10.338 325.213 10.317C325.901 10.2982 326.286 10.4015 326.069 10.5469ZM328.529 10.7203C328.75 10.9612 328.457 11.1582 327.876 11.1582C327.296 11.1582 327.002 10.9612 327.224 10.7203C327.446 10.4795 327.739 10.2824 327.876 10.2824C328.013 10.2824 328.307 10.4795 328.529 10.7203ZM335.377 10.6691C335.377 10.8819 334.717 11.1679 333.91 11.3045C332.492 11.544 332.485 11.5309 333.708 10.9174C335.185 10.1769 335.377 10.148 335.377 10.6691ZM311.896 10.9134C311.896 11.0199 311.603 11.2283 311.244 11.3772C310.885 11.5261 310.592 11.4389 310.592 11.1841C310.592 10.9292 310.885 10.7203 311.244 10.7203C311.603 10.7203 311.896 10.807 311.896 10.9134ZM281.716 11.4227C281.499 11.5681 280.936 11.5839 280.466 11.4573C279.945 11.3176 280.1 11.2139 280.86 11.1928C281.547 11.174 281.932 11.2773 281.716 11.4227ZM288.86 12.9922C288.652 13.3412 288.498 13.2374 288.466 12.7273C288.438 12.2657 288.592 12.0074 288.809 12.1527C289.025 12.2981 289.049 12.676 288.86 12.9922ZM518.009 13.1288C518.009 14.2306 516.984 14.1816 516.848 13.0732C516.77 12.4466 516.988 12.0997 517.362 12.2548C517.718 12.4028 518.009 12.796 518.009 13.1288ZM246.997 13.3478C247.218 13.5886 247.089 13.7857 246.709 13.7857C246.329 13.7857 246.018 13.5886 246.018 13.3478C246.018 13.1069 246.147 12.9099 246.306 12.9099C246.464 12.9099 246.775 13.1069 246.997 13.3478ZM282.974 13.5891C283.173 13.9381 283.599 14.2236 283.919 14.2236C284.857 14.2236 284.588 13.4638 283.556 13.198C282.924 13.0351 282.731 13.1648 282.974 13.5891ZM537.525 13.6092C536.796 14.1987 536.834 14.3738 537.771 14.7255C539.334 15.3131 539.229 16.1312 537.662 15.568C536.993 15.3272 536.212 15.2711 535.928 15.4432C535.644 15.6153 535.606 15.3955 535.843 14.9541C536.079 14.5131 536.273 13.8724 536.273 13.5308C536.273 13.1893 536.749 12.9099 537.33 12.9099C538.226 12.9099 538.256 13.0176 537.525 13.6092ZM211.894 14.7439C211.686 15.0929 211.531 14.9891 211.5 14.4789C211.472 14.0174 211.626 13.759 211.843 13.9044C212.059 14.0498 212.083 14.4277 211.894 14.7439ZM525.184 13.9788C525.184 14.0852 524.891 14.2937 524.532 14.4426C524.173 14.5915 523.88 14.5043 523.88 14.2495C523.88 13.9946 524.173 13.7857 524.532 13.7857C524.891 13.7857 525.184 13.8724 525.184 13.9788ZM527.141 14.2236C527.141 14.4645 526.847 14.6615 526.489 14.6615C526.13 14.6615 525.836 14.4645 525.836 14.2236C525.836 13.9828 526.13 13.7857 526.489 13.7857C526.847 13.7857 527.141 13.9828 527.141 14.2236ZM210.144 15.0994C210.144 15.5811 209.878 15.9753 209.553 15.9753C209.228 15.9753 209.115 15.5811 209.303 15.0994C209.491 14.6177 209.757 14.2236 209.894 14.2236C210.031 14.2236 210.144 14.6177 210.144 15.0994ZM214.058 15.0994C214.058 15.3403 213.928 15.5374 213.77 15.5374C213.611 15.5374 213.301 15.3403 213.079 15.0994C212.857 14.8586 212.987 14.6615 213.367 14.6615C213.747 14.6615 214.058 14.8586 214.058 15.0994ZM207.981 16.0576C207.773 16.4066 207.618 16.3028 207.587 15.7927C207.559 15.3311 207.712 15.0727 207.929 15.2181C208.146 15.3635 208.169 15.7414 207.981 16.0576ZM546.056 17.4348C546.056 17.7563 545.616 18.019 545.078 18.019C544.046 18.019 543.806 17.6319 544.535 17.1432C545.255 16.6597 546.056 16.8134 546.056 17.4348ZM119.78 23.887C119.543 24.1436 119.49 24.448 119.66 24.5627C119.831 24.6774 120.145 24.4672 120.358 24.0955C120.799 23.3239 120.423 23.1881 119.78 23.887ZM55.6786 29.6455C55.211 29.9595 54.907 29.9854 54.907 29.7112C54.907 29.4621 55.1027 29.1271 55.3421 28.9668C55.5808 28.8061 55.9284 28.7763 56.1137 28.9011C56.2989 29.0255 56.1032 29.3605 55.6786 29.6455ZM19.0329 32.3435C19.0329 32.4342 18.5196 32.7792 17.8914 33.1099C16.8569 33.6542 16.8341 33.6389 17.6449 32.9443C18.4974 32.2148 19.0329 31.9831 19.0329 32.3435ZM28.6374 34.3675C28.5291 35.3318 27.5122 35.5955 27.5122 34.6596C27.5122 34.1372 28.0908 33.4917 28.5591 33.4917C28.6563 33.4917 28.6915 33.8858 28.6374 34.3675Z" fill="#252525"/>
</svg>
