<svg width="514" height="155" viewBox="0 0 514 155" fill="none" xmlns="http://www.w3.org/2000/svg">
<path fill-rule="evenodd" clip-rule="evenodd" d="M214.186 1.35539C213.45 2.1375 212.853 2.22087 212.146 1.63806C210.767 0.499437 204.649 3.49924 203.671 5.79395C203.112 7.1017 203.048 6.7698 203.416 4.47826L203.908 1.41335L200.407 2.02316C195.287 2.91564 193.803 3.01171 192.922 2.50751C191.786 1.85721 186.682 2.39794 185.598 3.28327C184.994 3.77715 184.557 3.68425 184.326 3.01092C184.043 2.18752 183.454 2.17561 181.345 2.94899C179.553 3.60564 178.247 3.66281 177.243 3.12923C176.12 2.53133 175.386 2.72825 174.146 3.95977C172.795 5.30245 171.951 5.47793 169.135 5.0047C167.272 4.69106 165.388 4.5537 164.948 4.699C164.509 4.84351 162.172 5.07219 159.755 5.20638C152.771 5.59465 152.565 5.62483 152.565 6.26401C152.565 6.59829 151.432 6.70549 150.046 6.50381C147.795 6.17508 147.575 6.31642 147.974 7.8322C148.274 8.97082 148.051 9.52822 147.296 9.52822C146.679 9.52822 146.173 8.99226 146.173 8.33719C146.173 7.54318 145.374 7.14617 143.776 7.14617C142.392 7.14617 141.379 7.56541 141.379 8.13869C141.379 8.75167 140.142 9.17171 138.143 9.23761C134.461 9.3583 133.295 10.0689 135.011 11.1472C135.807 11.6475 135.864 11.8896 135.188 11.8984C134.639 11.9047 134.189 12.4462 134.189 13.1013C134.189 13.7564 133.65 14.2923 132.991 14.2923C132.331 14.2923 131.792 13.7564 131.792 13.1013C131.792 12.4462 132.152 11.9103 132.591 11.9103C133.031 11.9103 133.39 11.553 133.39 11.1163C133.39 9.91888 131.226 10.1634 130.742 11.4148C130.485 12.0802 129.574 12.366 128.413 12.1453C126.65 11.811 126.53 11.9952 126.833 14.5718C127.145 17.2231 129.122 19.0795 130.13 17.6669C130.385 17.3104 131.583 16.9555 132.791 16.8792C133.999 16.803 135.438 16.6998 135.987 16.6498C136.536 16.5998 137.794 16.8054 138.783 17.1063C140.125 17.5153 140.581 17.3334 140.581 16.3893C140.581 15.3611 140.962 15.2698 142.63 15.9002C145.714 17.065 148.57 16.865 148.57 15.4834C148.57 14.7425 149.324 14.2923 150.567 14.2923C151.735 14.2923 152.565 14.7489 152.565 15.3897C152.565 16.8935 158.885 16.9888 159.462 15.4937C159.692 14.8982 160.841 14.4297 162.015 14.4519C166.08 14.5297 166.946 14.2868 166.946 13.0664C166.946 12.3922 167.395 11.8984 167.944 11.9698C168.494 12.0405 169.764 12.0564 170.769 12.004C172.332 11.9238 172.473 11.6848 171.749 10.3405C171.059 9.05896 171.127 8.85569 172.12 9.23364C172.79 9.48932 173.337 10.196 173.337 10.8042C173.337 11.4124 173.838 11.9103 174.45 11.9103C175.062 11.9103 175.767 12.4407 176.018 13.0886C176.686 14.8196 186.322 14.3598 188.516 12.4923C190.204 11.0559 192.127 10.6025 191.37 11.8198C191.13 12.2064 191.836 12.694 192.94 12.9044C194.043 13.114 195.143 12.9703 195.382 12.5852C195.622 12.1993 196.152 12.0897 196.562 12.3414C196.971 12.5923 197.305 12.4192 197.305 11.9571C197.305 11.495 198.046 11.1163 198.95 11.1163C199.855 11.1163 200.373 11.4736 200.102 11.9103C199.798 12.3986 200.933 12.6582 203.051 12.5852C205.347 12.5058 205.777 12.3573 204.34 12.1397C202.805 11.9071 202.321 11.4656 202.653 10.6041C202.91 9.93952 203.34 9.69338 203.608 10.057C204.364 11.0821 207.542 12.7043 208.796 12.7043C209.414 12.7043 211.576 11.1504 213.6 9.25032C216.119 6.88573 217.279 6.20605 217.279 7.09456C217.279 7.80758 216.194 9.02879 214.868 9.80692C212.154 11.4005 212.383 12.7043 215.376 12.7043C216.653 12.7043 217.173 12.3819 216.817 11.8102C216.418 11.1695 216.665 11.1401 217.682 11.7062C219.481 12.7067 222.073 12.0691 222.073 10.6263C222.073 10.0229 222.432 9.52822 222.871 9.52822C223.311 9.52822 223.67 10.0046 223.67 10.5866C223.67 12.2477 233.08 12.058 233.532 10.3881C233.811 9.35195 233.887 9.37498 233.964 10.5207C234.071 12.1215 235.693 12.3486 237.093 10.9575C237.82 10.2349 238.051 10.2309 238.051 10.9408C238.051 11.9794 252.082 11.9341 253.763 10.8908C254.274 10.5724 254.875 10.7613 255.099 11.31C255.411 12.0715 255.697 12.0349 256.314 11.1544C256.757 10.52 256.946 9.72037 256.732 9.37656C256.519 9.03355 256.902 8.96526 257.584 9.22491C258.266 9.48534 258.824 10.119 258.824 10.6343C258.824 11.6578 260.35 11.8912 266.414 11.7959C268.611 11.761 273.285 11.8142 276.8 11.9135C287.998 12.2303 288.689 12.1929 289.004 11.256C289.217 10.6184 289.677 10.6994 290.503 11.5204C292.007 13.0148 296.954 13.0457 300.478 11.5823C302.806 10.616 303.394 10.616 304.723 11.5823C306.61 12.9544 308.258 13.0807 306.92 11.7515C305.615 10.4548 305.715 9.52822 307.16 9.52822C307.819 9.52822 308.358 10.0642 308.358 10.7192C308.358 11.3743 308.988 11.9397 309.756 11.9746C310.525 12.0103 312.233 12.1239 313.551 12.2271C314.87 12.3303 316.213 12.0334 316.535 11.5673C316.928 11.0003 317.126 11.048 317.135 11.7118C317.141 12.2581 317.955 12.6987 318.944 12.6924C320.195 12.6837 320.426 12.4812 319.706 12.0262C318.872 11.5014 318.9 11.1822 319.849 10.3993C320.811 9.60604 321.19 9.72355 321.897 11.0353C322.416 11.9984 323.244 12.4621 323.96 12.189C324.618 11.9381 325.601 12.0953 326.145 12.5383C327.754 13.8493 330.388 13.9731 331.804 12.8051C332.663 12.0977 333.125 12.0278 333.125 12.6074C333.125 13.5531 335.707 13.8437 336.562 12.9941C337.712 11.8515 343.441 11.9262 344.098 13.0926C344.793 14.3273 348.215 14.6687 353.327 14.0136C354.991 13.8 357.418 13.9295 358.72 14.3003C360.023 14.6719 361.088 14.6878 361.088 14.336C361.088 13.9843 361.987 13.6968 363.086 13.6968C364.184 13.6968 365.083 14.1462 365.083 14.6957C365.083 15.8891 368.092 16.834 368.455 15.7541C368.593 15.3404 370.048 14.7013 371.689 14.3336C374.364 13.7341 374.67 13.8294 374.67 15.2587C374.67 16.668 375.014 16.7871 377.666 16.2948C379.315 15.9891 380.384 16.0177 380.043 16.3584C379.148 17.2556 384.465 18.904 385.585 18.0766C386.127 17.6756 386.727 17.7368 387.03 18.2235C387.314 18.6817 388.904 19.0564 390.563 19.0564C392.221 19.0564 393.838 19.3137 394.154 19.6281C395.049 20.5174 402.913 20.5357 404.031 19.652C404.749 19.0842 405.03 19.2359 405.03 20.1895C405.03 21.2511 405.79 21.5068 408.825 21.4647C410.912 21.4353 413.828 21.6426 415.305 21.9252C417.041 22.2571 418.2 22.1007 418.584 21.483C419.04 20.7501 419.439 20.7747 420.294 21.5878C421.913 23.129 425.553 24.5971 426.188 23.9659C427.182 22.9781 430.543 23.3306 430.982 24.4693C431.322 25.3498 431.659 25.3856 432.568 24.636C433.72 23.6856 435.733 24.216 435.062 25.2927C434.752 25.7921 437.007 25.9025 439.984 25.5325C440.533 25.4642 441.011 24.7829 441.046 24.0191C441.096 22.9082 441.202 22.8685 441.574 23.8206C441.831 24.4756 442.576 25.4038 443.231 25.8834C443.887 26.363 444.187 27.134 443.899 27.5961C443.576 28.1162 443.957 28.2861 444.9 28.0408C445.739 27.8232 447.731 28.2615 449.328 29.0142C450.926 29.7678 454.016 30.3847 456.195 30.3847C458.374 30.3847 460.157 30.6944 460.157 31.0723C460.157 31.4511 460.696 31.7607 461.355 31.7607C462.015 31.7607 462.554 31.3653 462.554 30.8818C462.554 30.3982 463.093 30.2084 463.752 30.4601C464.411 30.711 464.951 30.5705 464.951 30.1481C464.951 28.8848 467.137 29.2778 467.662 30.6348C468.378 32.4912 468.326 32.5548 466.092 32.5548C464.14 32.5548 464.106 32.623 465.428 33.9371C466.42 34.9217 466.914 35.0384 467.148 34.3421C467.371 33.6775 468.317 34.0023 470.103 35.3568C471.765 36.617 473.24 37.1545 474.115 36.821C474.933 36.509 475.78 36.7456 476.19 37.4014C476.57 38.0112 477.523 38.5107 478.307 38.5107C479.09 38.5115 479.776 38.9585 479.831 39.5032C479.886 40.0487 479.976 40.7951 480.031 41.1611C480.31 43.0231 487.321 44.5031 487.321 42.6999C487.321 42.1663 487.881 42.5245 488.566 43.4955C489.25 44.4674 489.614 45.5782 489.374 45.9641C488.791 46.9011 490.408 48.0953 493.136 48.7432C494.458 49.0576 496.235 50.5345 497.53 52.3957C498.726 54.1147 500.147 55.5344 500.688 55.5511C501.229 55.5678 501.917 56.5516 502.217 57.7386C502.516 58.9249 503.424 60.6019 504.233 61.4658C505.233 62.5321 505.518 63.5604 505.12 64.6688C504.797 65.5661 504.613 67.7083 504.708 69.4282C504.805 71.1488 504.347 73.3689 503.692 74.363C503.037 75.3571 502.501 76.7181 502.501 77.389C502.501 78.0592 502.141 78.5181 501.7 78.4093C501.26 78.2997 500.445 79.1041 499.889 80.1959C499.332 81.2876 498.075 82.5335 497.094 82.9646C496.113 83.3958 495.31 84.3605 495.31 85.1085C495.31 85.8572 494.802 86.7545 494.182 87.1038C493.56 87.4532 492.931 88.811 492.783 90.1211C492.588 91.856 492.077 92.5254 490.905 92.5841C488.794 92.6905 485.018 94.6859 482.546 97.0013C481.458 98.0208 480.473 98.7759 480.357 98.6782C479.766 98.1812 472.344 101.496 470.755 102.968C470.199 103.482 469.744 104.328 469.744 104.846C469.744 105.386 469.087 105.619 468.208 105.39C467.364 105.171 465.557 105.665 464.194 106.489C462.831 107.312 461.198 107.987 460.565 107.987C459.932 107.987 458.084 109.147 456.458 110.565C454.833 111.984 452.843 113.033 452.036 112.898C451.004 112.724 450.57 113.14 450.57 114.304C450.57 115.698 450.236 115.873 448.441 115.426C446.679 114.987 446.399 115.121 446.818 116.205C447.156 117.08 446.907 117.515 446.065 117.515C445.274 117.515 444.977 117.072 445.266 116.324C445.579 115.514 445.223 115.133 444.153 115.133C443.288 115.133 442.58 115.43 442.58 115.794C442.58 116.159 442.131 116.517 441.582 116.591C432.801 117.782 428.375 119.462 428.047 121.731C427.825 123.272 427.684 123.319 426.636 122.198C425.448 120.928 425.408 120.932 418.477 123.034C416.865 123.523 414.199 124.095 412.552 124.304C410.906 124.513 409.145 125.026 408.64 125.443C408.135 125.86 405.588 126.436 402.98 126.722C400.35 127.011 396.559 128.133 394.466 129.243C391.435 130.849 390.461 131.053 389.523 130.279C388.669 129.574 387.925 129.543 386.758 130.164C385.88 130.631 383.935 131.013 382.435 131.013C380.936 131.013 378.595 131.566 377.232 132.241C375.707 132.998 371.626 133.62 366.614 133.86C362.136 134.074 357.852 134.58 357.093 134.984C356.334 135.387 353.237 135.776 350.212 135.847C347.186 135.918 343.263 136.454 341.495 137.039C339.727 137.622 335.952 138.165 333.106 138.244C329.484 138.346 327.37 138.824 326.056 139.84C324.425 141.1 324.028 141.142 323.032 140.152C322.198 139.323 321.357 139.213 319.942 139.747C318.873 140.151 316.638 140.454 314.976 140.42C313.313 140.386 311.594 140.435 311.154 140.529C310.715 140.625 309.223 140.641 307.84 140.567C306.456 140.494 305.087 140.815 304.797 141.281C304.506 141.747 303.436 142.129 302.416 142.129C301.398 142.129 300.125 142.655 299.588 143.298C298.784 144.262 298.429 144.284 297.565 143.427C296.268 142.136 287.114 142.458 285.424 143.853C284.518 144.6 284.126 144.579 283.613 143.751C283.122 142.963 280.716 142.731 274.079 142.833C264.374 142.981 261.233 143.724 261.197 145.881C261.174 147.186 261.108 147.181 260.304 145.806C259.602 144.604 259.302 144.529 258.73 145.409C258.177 146.262 257.928 146.148 257.576 144.875C257.271 143.775 256.373 143.196 254.78 143.076C253.488 142.978 252.432 143.214 252.432 143.601C252.432 143.987 251.354 144.178 250.035 144.025C248.717 143.873 247.639 144.072 247.639 144.468C247.639 145.498 245.191 145.891 242.779 145.248C241.226 144.835 240.483 145.069 239.776 146.193C239.259 147.015 238.229 147.687 237.486 147.687C236.434 147.687 236.347 147.475 237.093 146.735C239.125 144.715 238.019 144.115 232.445 144.215C229.362 144.27 226.652 144.016 226.424 143.649C225.817 142.672 222.204 144.519 221.802 146.011C221.526 147.042 221.441 147.007 221.366 145.831C221.283 144.528 220.61 144.394 215.082 144.585C211.677 144.703 208.093 145.078 207.12 145.419C206.079 145.784 205.142 145.702 204.843 145.221C204.563 144.771 203.786 144.612 203.115 144.868C202.445 145.124 201.493 145.021 200.999 144.64C198.408 142.639 194.981 143.344 193.903 146.099C193.533 147.046 193.424 147.002 193.374 145.888C193.329 144.895 192.671 144.495 191.114 144.519C189.906 144.537 188.029 144.453 186.944 144.333C184.77 144.092 183.573 146.614 185.345 147.702C185.884 148.033 186.078 148.701 185.776 149.187C184.983 150.461 183.723 150.272 183.723 148.878C183.723 148.223 183.351 147.687 182.896 147.687C182.349 147.687 182.373 147.123 182.968 146.018C183.834 144.409 183.719 144.359 179.8 144.628C176.749 144.838 175.733 144.636 175.733 143.819C175.734 142.94 175.501 142.92 174.536 143.717C173.808 144.317 173.337 144.38 173.337 143.879C173.337 143.394 171.267 143.047 168.344 143.042C165.598 143.036 159.336 142.912 154.432 142.767C149.526 142.622 145.679 142.772 145.884 143.101C146.379 143.897 143.843 142.942 141.501 141.45C140.14 140.585 139.262 140.482 138.305 141.075C137.569 141.531 136.278 141.619 135.387 141.273C133.034 140.359 127.045 140.427 123.493 141.408C121.152 142.053 120.24 142.03 119.794 141.314C119.458 140.772 117.181 140.315 114.512 140.253C110.625 140.163 109.514 140.45 108.024 141.931C105.787 144.153 104.248 144.302 105.59 142.165C106.721 140.365 105.851 139.008 104.455 140.396C103.078 141.764 101.858 141.548 103.03 140.144C103.578 139.489 103.891 138.935 103.727 138.913C103.564 138.891 101.157 138.675 98.3789 138.432C93.8497 138.035 93.1162 138.182 91.2755 139.861L89.223 141.732L89.7503 139.549C90.3247 137.17 90.3775 137.198 84.8544 136.965C82.9865 136.886 81.4589 137.148 81.4589 137.547C81.4589 137.946 80.894 137.711 80.2037 137.025C79.5127 136.339 78.3142 135.777 77.5401 135.777C76.7659 135.777 75.903 135.548 75.6218 135.27C75.3414 134.99 73.7531 134.671 72.0937 134.561C64.4294 134.048 59.5375 133.301 58.558 132.493C57.7671 131.84 57.1575 131.887 56.2059 132.673C55.1178 133.57 54.7631 133.517 53.8898 132.33C53.1148 131.277 52.7537 131.186 52.4389 131.963C52.1098 132.775 51.8693 132.787 51.322 132.02C50.9377 131.482 49.788 131.202 48.767 131.397C47.7452 131.593 44.8993 131.051 42.4418 130.193C39.985 129.334 37.3318 128.834 36.5472 129.082C35.6724 129.358 35.1155 129.127 35.1083 128.486C35.0987 127.715 34.887 127.754 34.303 128.631C33.6247 129.651 33.3099 129.57 32.1187 128.071C31.3525 127.109 28.6592 125.541 26.1322 124.586C23.6051 123.633 21.5383 122.616 21.5383 122.328C21.5383 122.04 20.2799 121.949 18.742 122.128C16.171 122.427 15.9457 122.284 15.9457 120.36C15.9457 118.66 15.4863 118.178 13.4881 117.781C11.7536 117.436 10.421 116.332 8.95815 114.029C7.81806 112.234 6.97039 110.644 7.07425 110.495C7.17891 110.346 6.74349 109.81 6.10673 109.304C5.47077 108.798 4.72536 106.333 4.44973 103.828C4.01031 99.8216 4.14293 99.1531 5.55386 98.2773C6.4359 97.7302 7.15734 96.4748 7.15734 95.4879C7.15734 94.5017 7.50008 93.6942 7.91873 93.6942C8.33738 93.6942 9.27773 92.4436 10.0072 90.9151C10.7366 89.3866 11.8327 88.136 12.4415 88.136C13.0503 88.136 13.5489 87.6858 13.5489 87.1364C13.5489 86.5861 14.2679 85.6897 15.1468 85.1442C16.0256 84.5987 16.7446 83.4823 16.7446 82.6637C16.7446 81.8141 17.4725 80.9859 18.4416 80.7342C19.8062 80.3793 20.0379 79.8957 19.6248 78.2592C19.1231 76.2742 20.1513 75.4325 21.1388 77.0198C21.4105 77.4565 21.9322 77.8138 22.2989 77.8138C23.292 77.8138 24.0262 75.4246 23.3583 74.3678C23.0387 73.8612 22.8797 72.8218 23.0067 72.0572C23.133 71.2933 22.8334 70.6676 22.3404 70.6676C21.8475 70.6676 21.6597 71.0146 21.9234 71.4386C22.187 71.8626 21.5023 72.4335 20.4014 72.7083C19.3004 72.983 18.1827 73.8866 17.9175 74.7163C17.653 75.5469 17.101 76.2258 16.6911 76.2258C16.2812 76.2258 15.9457 76.6609 15.9457 77.1929C15.9457 77.7249 14.9894 78.977 13.8213 79.9751C12.6525 80.9724 11.3022 82.5922 10.8213 83.5728C10.3403 84.5542 8.78718 85.8929 7.37066 86.548C5.95174 87.2039 4.78768 88.352 4.77809 89.104C4.76691 89.9877 4.33788 90.3069 3.5621 90.0115C2.17195 89.4811 2.05211 90.3934 3.13707 93.2313C3.77782 94.9043 3.63561 95.3997 2.31576 96.1016C1.43852 96.5685 0.941577 97.3046 1.21162 97.7389C1.48166 98.1724 1.24358 99.0768 0.68272 99.7486C-0.0754755 100.657 -0.112226 101.326 0.540509 102.366C1.0782 103.22 1.14131 104.196 0.70509 104.881C-0.266423 106.406 -0.222481 110.369 0.76581 110.369C1.20523 110.369 1.59351 111.352 1.62787 112.552C1.66222 113.753 1.87234 114.289 2.09365 113.743C2.61696 112.456 3.80978 112.456 3.69633 113.743C3.54852 115.419 6.59009 120.691 7.70461 120.691C8.28225 120.691 8.75522 121.193 8.75522 121.807C8.75522 122.508 9.31288 122.779 10.2516 122.535C11.2759 122.269 12.3001 122.918 13.5017 124.595C14.4661 125.942 15.9505 127.043 16.799 127.043C17.6482 127.043 18.3425 127.579 18.3425 128.234C18.3425 128.889 18.8818 129.425 19.5409 129.425C20.2001 129.425 20.7393 129.812 20.7393 130.285C20.7393 130.758 21.1891 130.981 21.738 130.781C22.2877 130.581 22.6512 130.028 22.5465 129.553C22.4419 129.077 22.8917 128.892 23.5452 129.142C24.1988 129.391 24.734 130.052 24.734 130.61C24.734 131.601 29.2984 134.189 31.0465 134.189C31.5298 134.189 31.9245 134.492 31.9245 134.862C31.9245 135.232 33.039 135.567 34.402 135.606C35.7642 135.644 37.5195 136.252 38.3025 136.956C39.258 137.815 40.4133 138.065 41.817 137.715C43.0442 137.409 43.9086 137.526 43.9086 137.999C43.9086 138.442 44.6277 138.617 45.5065 138.389C47.3097 137.92 47.6021 136.903 46.1057 136.303C45.5569 136.083 45.9164 135.874 46.9047 135.84C47.9441 135.803 48.7023 136.246 48.7023 136.89C48.7023 138.216 53.1516 140.107 55.693 139.861C56.6813 139.766 57.4906 140.02 57.4906 140.426C57.4906 141.654 60.0153 142.218 61.1873 141.252C62.0366 140.551 62.2843 140.623 62.2843 141.572C62.2843 142.498 63.5043 142.906 67.2777 143.243C70.0244 143.488 73.2953 143.65 74.548 143.604C76.5997 143.528 76.7811 143.3 76.38 141.307C76.0668 139.752 76.2993 138.958 77.1646 138.628C79.0309 137.916 79.277 138.045 78.7361 139.446C78.3542 140.436 78.6115 140.636 79.849 140.314C81.9007 139.781 81.9167 140.656 79.8826 142.113C78.4309 143.154 78.4077 143.354 79.5838 144.646C80.485 145.635 81.2559 145.838 82.2019 145.336C82.9617 144.931 84.0259 144.919 84.6594 145.309C85.2738 145.686 86.0336 145.837 86.3468 145.644C86.6608 145.451 87.9359 145.683 89.1814 146.158C90.427 146.634 93.2433 147.182 95.4404 147.379C97.6374 147.574 100.109 147.941 100.933 148.193C101.909 148.492 102.241 148.345 101.885 147.772C101.065 146.454 102.684 146.714 103.829 148.084C105.234 149.767 106.226 149.562 106.226 147.591C106.226 146.357 106.494 146.114 107.225 146.681C107.774 147.108 109.392 147.848 110.82 148.325C113.257 149.14 113.417 149.079 113.417 147.342C113.417 146.159 113.993 145.341 115.012 145.076C116.267 144.75 116.46 144.922 115.919 145.884C114.712 148.026 117.61 149.981 121.96 149.962C124.072 149.953 127.33 150.293 129.2 150.718C131.186 151.169 132.784 151.195 133.043 150.78C133.285 150.389 133.103 150.069 132.638 150.069C132.173 150.069 131.792 149.791 131.792 149.449C131.792 148.469 136.317 147.032 137.369 147.678C137.992 148.061 137.677 148.44 136.454 148.782L134.588 149.303L136.407 150.823C138.716 152.752 149.992 153.036 150.708 151.183C151.279 149.703 152.565 149.757 152.565 151.261C152.565 151.993 153.313 152.452 154.508 152.452C156.144 152.452 156.442 152.079 156.385 150.109C156.336 148.397 155.885 147.703 154.709 147.529C153.306 147.321 153.254 147.164 154.307 146.303C155.328 145.467 155.809 145.885 157.435 149.028L159.356 152.741L159.809 150.413C160.058 149.132 159.983 147.298 159.643 146.336C159.164 144.981 159.287 144.688 160.189 145.031C160.829 145.275 161.359 145.883 161.365 146.383C161.372 146.926 161.657 146.851 162.075 146.196C163.056 144.657 164.715 145.915 164.128 147.754C163.861 148.591 164.001 149.275 164.441 149.275C164.88 149.275 165.468 149.99 165.747 150.864C166.026 151.737 166.769 152.452 167.399 152.452C168.028 152.452 168.543 152.809 168.543 153.246C168.543 154.304 171.437 154.256 173.491 153.164C174.756 152.491 175.297 152.537 175.823 153.362C176.356 154.197 176.511 154.127 176.521 153.047C176.535 151.391 178.698 151.223 180.464 152.741C181.159 153.337 183.075 154.029 184.722 154.279C187.059 154.634 187.718 154.471 187.718 153.539C187.718 152.341 189.659 152.553 192.469 154.056C193.105 154.397 194.441 154.368 195.437 153.99C196.525 153.58 197.439 153.612 197.724 154.07C198.421 155.19 203.507 155.002 203.9 153.841C204.143 153.125 204.549 153.082 205.364 153.687C205.985 154.149 208.558 154.616 211.083 154.726C215.143 154.901 215.897 154.684 217.612 152.845L219.552 150.765L219.813 152.601C220.059 154.325 220.39 154.426 225.268 154.264C228.125 154.17 230.821 154.055 231.26 154.009C231.7 153.964 236.968 154.174 242.968 154.474C253.202 154.987 253.901 154.93 254.26 153.538C254.599 152.228 254.655 152.217 254.736 153.444C254.819 154.684 255.71 155.185 257.391 154.939C258.607 154.761 281.721 153.87 283.791 153.921C284.999 153.951 285.988 153.642 285.988 153.233C285.988 152.783 286.723 152.768 287.852 153.196C288.878 153.583 290.193 153.607 290.777 153.249C291.365 152.887 292.435 152.968 293.179 153.431C294.014 153.948 295.703 154.021 297.645 153.621C299.363 153.268 301.095 153.057 301.494 153.153C301.893 153.25 302.476 152.916 302.79 152.412C303.221 151.719 303.783 151.718 305.077 152.406C306.021 152.908 307.121 153.118 307.52 152.872C307.92 152.627 310.499 152.251 313.251 152.039C316.002 151.827 318.486 151.279 318.771 150.821C319.055 150.364 319.974 150.003 320.814 150.019C322.916 150.06 325.27 150.056 326.934 150.01C327.702 149.988 328.332 149.457 328.332 148.829C328.332 148.201 328.871 147.687 329.53 147.687C330.189 147.687 330.729 148.045 330.729 148.481C330.729 148.918 331.245 149.275 331.877 149.275C332.694 149.275 333.013 148.347 332.981 146.061C332.956 144.293 333.158 142.626 333.43 142.356C333.702 142.086 333.924 142.8 333.924 143.944C333.924 146.268 335.451 150.069 336.384 150.069C337.881 150.069 339.517 149.013 339.517 148.046C339.517 146.258 341.299 145.777 342.396 147.269C343.627 148.942 346.313 148.292 345.617 146.49C345.35 145.798 345.611 145.305 346.247 145.305C346.846 145.305 347.542 145.841 347.796 146.496C348.048 147.151 349.075 147.646 350.078 147.595C351.431 147.527 351.54 147.41 350.502 147.14C348.879 146.719 348.607 145.305 350.15 145.305C350.725 145.305 351.892 145.812 352.744 146.431C353.837 147.225 354.587 147.313 355.294 146.731C355.998 146.149 356.295 146.18 356.295 146.832C356.295 147.448 357.167 147.597 358.891 147.277C361.664 146.762 362.605 146.603 370.676 145.288C373.532 144.822 376.588 144.113 377.467 143.71C378.345 143.308 379.963 143.017 381.062 143.063C383.917 143.184 389.317 142.125 390.21 141.269C390.627 140.868 391.65 140.541 392.483 140.541C393.316 140.541 394.952 139.874 396.119 139.058C397.563 138.048 398.749 137.777 399.837 138.208C402.364 139.21 403.422 139.056 402.922 137.762C402.631 137.008 402.933 136.571 403.746 136.571C404.452 136.571 405.03 136.928 405.03 137.365C405.03 137.802 405.569 138.159 406.228 138.159C407.644 138.159 407.658 138.072 406.648 135.432C406.141 134.108 406.141 133.395 406.648 133.395C407.076 133.395 407.427 133.931 407.427 134.586C407.427 135.241 408.116 135.777 408.958 135.777C409.801 135.777 410.609 136.123 410.756 136.547C410.912 136.998 412.546 136.771 414.699 136C417.481 135.004 418.599 134.096 419.291 132.272L420.207 129.862L421.424 131.587C422.581 133.23 422.797 133.258 425.904 132.168C427.699 131.539 429.438 131.189 429.767 131.392C430.096 131.593 430.204 130.919 430.006 129.891C429.653 128.056 431.434 125.969 431.976 127.584C432.128 128.036 432.718 129.04 433.289 129.815C434.203 131.058 434.692 131.11 437.454 130.255C439.175 129.722 442.107 128.603 443.97 127.768C445.833 126.933 447.907 126.249 448.58 126.249C449.252 126.249 451.226 125.356 452.967 124.264C454.707 123.172 456.651 122.279 457.288 122.279C457.924 122.279 458.92 121.832 459.501 121.286C460.081 120.741 461.764 120.198 463.239 120.081C464.714 119.963 466.681 119.339 467.611 118.691C468.54 118.044 469.94 117.515 470.721 117.515C471.502 117.515 472.141 116.979 472.141 116.324C472.141 115.656 472.854 115.133 473.764 115.133C474.657 115.133 475.594 114.597 475.847 113.942C476.1 113.287 477.176 112.751 478.239 112.751C479.564 112.751 480.409 112.127 480.93 110.766C481.673 108.823 483.326 108.002 483.326 109.575C483.326 110.749 484.868 110.538 486.237 109.178C486.896 108.522 488.043 107.987 488.786 107.987C489.53 107.987 490.493 107.212 490.927 106.265C491.361 105.318 492.432 104.157 493.308 103.685C494.183 103.212 495.694 102.022 496.665 101.039C497.635 100.057 498.716 99.2372 499.067 99.219C499.418 99.1999 500.603 98.0629 501.702 96.6908C502.801 95.3187 504.691 93.2598 505.903 92.1165C508.841 89.3414 513.513 80.0212 511.275 81.3956C509.659 82.3889 510.226 78.6356 512.287 74.7021C513.527 72.3351 514.26 70.1912 513.915 69.9379C513.569 69.6839 513.286 67.0048 513.285 63.9844C513.283 60.3025 512.954 58.3826 512.286 58.1611C511.737 57.9792 511.289 57.3631 511.289 56.7914C511.289 56.2189 510.784 55.5583 510.166 55.3232C509.548 55.0874 508.802 53.8027 508.507 52.4679C508.212 51.1332 507.639 49.8374 507.233 49.588C506.827 49.3395 506.483 48.3525 506.467 47.3958C506.451 46.439 505.642 44.7485 504.669 43.6393C502.248 40.8769 496.908 37.0481 496.908 38.0724C496.908 38.5313 496.369 38.9069 495.71 38.9069C495.051 38.9069 494.512 38.6068 494.512 38.2407C494.512 37.8739 493.613 37.1664 492.514 36.6694C491.416 36.1715 490.508 35.1321 490.497 34.358C490.477 32.9208 485.936 30.1727 483.581 30.1727C482.879 30.1727 481.792 29.547 481.167 28.7832C480.385 27.828 479.905 27.6882 479.631 28.3369C479.36 28.9753 478.71 28.7609 477.615 27.6723C476.491 26.5559 475.408 26.2121 474.069 26.5456C472.988 26.8156 472.141 26.6758 472.141 26.228C472.141 24.9322 466.411 21.7291 462.953 21.0915C461.196 20.7676 459.389 20.1998 458.939 19.8306C457.284 18.4728 448.938 16.1321 443.105 15.3905C441.279 15.1586 438.616 14.6663 437.187 14.2971C435.429 13.8429 434.591 13.9064 434.591 14.4948C434.591 14.972 433.782 14.6203 432.793 13.7119C431.665 12.6757 429.508 11.915 427.001 11.6681C424.804 11.4513 421.209 10.8741 419.012 10.3842C416.814 9.89506 412.935 9.35513 410.389 9.18362C407.844 9.0129 405.327 8.52935 404.797 8.10931C404.266 7.68928 401.315 7.31291 398.239 7.27242C392.728 7.20016 391.418 7.03739 389.051 6.13459C386.901 5.31437 379.464 4.97929 379.464 5.70264C379.464 6.09091 378.8 6.05519 377.988 5.62324C376.974 5.08331 376.226 5.1238 375.592 5.75425C374.896 6.44584 374.67 6.39899 374.67 5.56527C374.67 4.76093 374.397 4.8324 373.664 5.8273C372.53 7.36929 369.314 7.22239 368.294 5.58274C367.857 4.88004 366.81 4.699 365.125 5.03408C363.412 5.37392 362.778 5.25878 363.142 4.6728C363.478 4.13287 362.995 4.17495 361.847 4.78555C360.332 5.59148 359.86 5.54701 359.111 4.52908C358.299 3.4254 358.112 3.43572 357.297 4.62675C356.455 5.85827 356.385 5.8535 356.342 4.56561C356.315 3.80176 356.204 3.14352 356.095 3.10382C355.985 3.06491 352.322 2.87435 347.956 2.6814C343.589 2.48766 339.577 1.96678 339.039 1.52372C338.37 0.971085 337.884 1.00205 337.5 1.62059C337.133 2.20975 335.926 2.32409 334.032 1.94852C329.085 0.967115 325.935 1.04731 325.935 2.15497C325.935 2.71634 325.575 3.17607 325.136 3.17607C324.697 3.17607 324.427 2.7743 324.537 2.2828C324.647 1.79131 323.838 1.29266 322.739 1.17435C321.641 1.05604 319.933 0.701912 318.944 0.386687C317.584 -0.0460535 317.147 0.127042 317.147 1.09813C317.147 1.8048 317.566 2.38206 318.079 2.38206C318.591 2.38206 318.742 2.64964 318.413 2.97598C318.084 3.30312 317.362 2.95613 316.81 2.20499C315.445 0.348574 311.722 0.218355 308.466 1.91279C306.349 3.01409 305.585 3.10382 304.871 2.33283C304.186 1.59518 304.208 1.49276 304.963 1.91517C305.575 2.25898 305.961 1.99775 305.961 1.23787C305.961 0.557401 305.502 0 304.941 0C303.699 0 300.337 2.16291 298.971 3.84067C298.102 4.90783 297.972 4.83398 297.972 3.27453C297.972 1.84212 297.65 1.58248 296.374 1.98505C295.236 2.34394 294.776 2.12797 294.776 1.23232C294.776 0.312049 294.08 0.015086 292.18 0.124661C290.751 0.208033 289.001 0.558195 288.29 0.903593C287.579 1.24899 286.779 1.31569 286.513 1.05128C286.247 0.786078 282.731 0.467676 278.7 0.343015C273.158 0.172301 270.915 0.413683 269.5 1.33554C267.929 2.35823 267.56 2.3765 267.202 1.44988C266.754 0.289817 263.818 0.0865473 262.166 1.1013C261.631 1.42923 261.365 1.97234 261.574 2.30742C261.782 2.64249 261.462 3.61437 260.862 4.46556C259.93 5.78681 257.272 6.27434 254.829 5.57242C254.154 5.37868 258.378 3.71124 259.122 3.87878C259.505 3.96453 259.595 3.45557 259.322 2.74651C259.048 2.03825 258.824 1.12751 258.824 0.724145C258.824 0.297757 256.226 0.185006 252.632 0.454973C245.329 1.00285 245.459 1.00443 242.645 0.336664C240.964 -0.0627276 240.448 0.105604 240.448 1.05128C240.448 2.14703 240.198 2.15814 238.251 1.14895C235.243 -0.410507 229.265 -0.309667 226.894 1.3403C225.529 2.29074 224.877 2.40588 224.652 1.73731C224.188 0.353338 220.044 0.587574 218.809 2.06683C217.842 3.22451 217.632 3.19989 216.486 1.79369C215.416 0.479588 215.071 0.413684 214.186 1.35539ZM224.469 3.57308C224.469 4.22815 224.11 4.80858 223.67 4.86336C223.231 4.91815 222.499 5.00708 222.044 5.06187C221.588 5.11665 220.874 5.69708 220.458 6.35215C219.383 8.04102 219.422 5.92338 220.503 3.91769C221.477 2.10891 224.469 1.84927 224.469 3.57308ZM182.125 5.11427C182.125 5.30722 181.766 5.68517 181.327 5.95514C180.887 6.2251 180.528 6.06709 180.528 5.60497C180.528 5.14286 180.887 4.76411 181.327 4.76411C181.766 4.76411 182.125 4.92133 182.125 5.11427ZM158.592 9.47185C157.807 10.7351 156.541 9.70608 157.099 8.25859C157.407 7.46219 157.842 7.30973 158.354 7.81791C158.784 8.24588 158.891 8.98988 158.592 9.47185ZM353.898 8.33719C353.898 8.99226 353.37 9.52822 352.724 9.52822C352.01 9.52822 351.731 9.06293 352.011 8.33719C352.264 7.68213 352.792 7.14617 353.184 7.14617C353.577 7.14617 353.898 7.68213 353.898 8.33719ZM362.229 7.74168C361.832 8.06961 361.238 8.6945 360.91 9.13121C360.57 9.5846 360.309 9.32892 360.301 8.5357C360.295 7.76312 360.881 7.14617 361.621 7.14617C362.353 7.14617 362.627 7.41375 362.229 7.74168ZM154.961 9.52822C154.961 9.96493 154.602 10.3222 154.163 10.3222C153.723 10.3222 153.364 9.96493 153.364 9.52822C153.364 9.09151 153.723 8.7342 154.163 8.7342C154.602 8.7342 154.961 9.09151 154.961 9.52822ZM180.311 9.21379C180.046 9.4774 179.356 9.50599 178.78 9.27652C178.143 9.02322 178.332 8.83504 179.263 8.79693C180.105 8.76279 180.576 8.95018 180.311 9.21379ZM374.67 10.3826C374.67 10.7582 374.131 10.8606 373.472 10.6097C372.813 10.358 372.273 9.84424 372.273 9.46788C372.273 9.09231 372.813 8.98988 373.472 9.24079C374.131 9.49249 374.67 10.0062 374.67 10.3826ZM391.448 9.52822C391.448 9.96493 390.819 10.3167 390.05 10.3103C388.855 10.3 388.826 10.1857 389.85 9.52822C391.358 8.55952 391.448 8.55952 391.448 9.52822ZM140.181 11.1163C140.453 11.553 140.294 11.9103 139.829 11.9103C139.364 11.9103 138.983 11.553 138.983 11.1163C138.983 10.6795 139.141 10.3222 139.335 10.3222C139.529 10.3222 139.909 10.6795 140.181 11.1163ZM349.104 11.1163C349.104 11.553 348.723 11.9103 348.258 11.9103C347.793 11.9103 347.634 11.553 347.906 11.1163C348.177 10.6795 348.558 10.3222 348.752 10.3222C348.946 10.3222 349.104 10.6795 349.104 11.1163ZM369.042 13.0576C369.768 13.9279 369.8 14.2923 369.15 14.2923C368.643 14.2923 368.022 13.7564 367.769 13.1013C367.516 12.4462 366.808 11.9103 366.196 11.9103C365.584 11.9103 365.083 11.5403 365.083 11.0885C365.083 10.0602 367.573 11.2981 369.042 13.0576ZM358.475 11.5958C358.21 11.8595 357.52 11.888 356.944 11.6586C356.307 11.4053 356.496 11.2171 357.427 11.179C358.269 11.1448 358.74 11.3322 358.475 11.5958ZM124.336 14.0279C123.295 15.0617 123.824 16.6744 125.201 16.6625C126.307 16.6529 126.369 16.5053 125.498 15.9566C124.893 15.5755 124.644 14.8664 124.946 14.3813C125.55 13.4102 125.175 13.1934 124.336 14.0279ZM388.036 16.36C387.771 16.6236 387.081 16.6522 386.505 16.4227C385.867 16.1694 386.057 15.9812 386.988 15.9431C387.83 15.909 388.301 16.0963 388.036 16.36ZM390.649 17.4684C390.649 17.9051 390.29 18.2624 389.85 18.2624C389.411 18.2624 389.051 17.9051 389.051 17.4684C389.051 17.0317 389.411 16.6744 389.85 16.6744C390.29 16.6744 390.649 17.0317 390.649 17.4684ZM399.437 17.8654C399.437 18.5205 399.078 19.0564 398.639 19.0564C398.199 19.0564 397.84 18.5205 397.84 17.8654C397.84 17.2103 398.199 16.6744 398.639 16.6744C399.078 16.6744 399.437 17.2103 399.437 17.8654ZM421.808 19.5003C421.808 20.1808 421.448 20.5174 421.009 20.2475C420.57 19.9775 420.21 19.4209 420.21 19.0096C420.21 18.5983 420.57 18.2624 421.009 18.2624C421.448 18.2624 421.808 18.8198 421.808 19.5003ZM451.369 26.5996C451.369 27.2547 450.829 27.7906 450.17 27.7906C449.511 27.7906 448.972 27.2547 448.972 26.5996C448.972 25.9446 449.511 25.4086 450.17 25.4086C450.829 25.4086 451.369 25.9446 451.369 26.5996ZM479.062 33.5473C478.84 34.0936 478.659 33.6465 478.659 32.5548C478.659 31.463 478.84 31.0167 479.062 31.5622C479.284 32.1085 479.284 33.0018 479.062 33.5473ZM102.631 42.877C102.359 43.3137 102.518 43.671 102.983 43.671C103.448 43.671 103.829 43.3137 103.829 42.877C103.829 42.4403 103.671 42.083 103.477 42.083C103.283 42.083 102.902 42.4403 102.631 42.877ZM91.9713 46.0531C91.9713 47.1448 92.1527 47.5919 92.374 47.0456C92.5961 46.5001 92.5961 45.6068 92.374 45.0605C92.1527 44.5151 91.9713 44.9613 91.9713 46.0531ZM75.2159 47.017C73.9712 48.2541 74.0016 49.4578 75.2671 49.0021C75.8168 48.8043 76.8722 49.1664 77.6136 49.8072C78.355 50.4488 79.3433 50.7378 79.8107 50.4511C80.9492 49.7516 80.8924 48.4351 79.7244 48.4351C79.2099 48.4351 78.1976 47.9039 77.4762 47.2552C76.4639 46.3445 75.947 46.2905 75.2159 47.017ZM64.4702 50.498C64.2073 50.7592 64.185 51.4715 64.4207 52.0821C64.7642 52.9721 64.141 53.0952 61.2752 52.7046C58.9998 52.3949 57.501 52.541 57.1495 53.1055C56.8459 53.5939 56.9785 53.9933 57.4435 53.9933C57.9085 53.9933 58.2896 54.8421 58.2896 55.879C58.2896 57.3615 58.717 57.7648 60.2869 57.7648C61.6939 57.7648 62.2843 57.3329 62.2843 56.3039C62.2843 54.696 64.5093 53.2104 66.0801 53.7701C66.748 54.0083 66.9014 53.6661 66.5434 52.7387C66.1775 51.7922 66.3046 51.5334 66.9421 51.9248C67.4566 52.2409 67.8769 52.1591 67.8769 51.743C67.8769 51.3269 67.308 50.7703 66.613 50.5051C65.0622 49.9136 65.0574 49.9136 64.4702 50.498ZM69.4748 52.1996C69.4748 53.6637 70.9512 54.1489 72.4644 53.1826C73.5973 52.4584 73.6173 52.3615 72.5683 52.6799C71.8524 52.8975 70.8641 52.6744 70.3712 52.1845C69.7089 51.5262 69.4748 51.5302 69.4748 52.1996ZM52.2975 54.7873C52.0259 55.224 52.1849 55.5813 52.6499 55.5813C53.1148 55.5813 53.4959 56.0879 53.4959 56.7064C53.4959 58.3365 55.3415 58.7042 56.3945 57.2837C57.0744 56.3666 57.0392 55.8131 56.2515 55.031C55.0123 53.7987 52.9894 53.6741 52.2975 54.7873ZM46.9047 56.9224C46.1353 57.1225 45.5065 57.9308 45.5065 58.7185C45.5065 59.5061 44.9001 60.6416 44.1587 61.2411C42.9851 62.1891 42.8748 62.1589 43.3094 61.0068C43.6058 60.2184 43.3438 59.5061 42.6599 59.2449C42.0287 59.0043 41.5118 59.1536 41.5118 59.576C41.5118 59.9992 40.9725 60.3454 40.3134 60.3454C39.6543 60.3454 39.115 60.6916 39.115 61.1148C39.115 61.5372 38.6125 61.6921 37.9973 61.457C36.2124 60.7766 35.9887 62.1931 37.6194 63.8589C38.9384 65.2072 39.115 65.231 39.115 64.0574C39.115 63.3261 39.6543 62.7275 40.3134 62.7275C40.9725 62.7275 41.5118 63.288 41.5118 63.9741C41.5118 66.0592 44.96 65.0063 45.5936 62.7275C45.9411 61.4785 46.176 61.2577 46.2256 62.1319C46.315 63.6835 47.5222 63.9836 48.346 62.6584C48.6408 62.1836 49.5548 61.97 50.3769 62.1836C51.5976 62.5004 51.7319 62.3146 51.1135 61.1656C50.6972 60.393 50.575 59.5434 50.8419 59.2782C51.3731 58.7494 49.6115 56.3189 48.8045 56.4674C48.5281 56.5182 47.674 56.7231 46.9047 56.9224ZM51.8981 59.5514C50.8738 60.2088 50.9026 60.3232 52.0978 60.3335C52.8672 60.3398 53.4959 59.9881 53.4959 59.5514C53.4959 58.5827 53.4057 58.5827 51.8981 59.5514ZM30.969 65.4835C26.856 68.1204 26.4246 68.7969 28.529 69.3107C29.2976 69.4981 28.7591 69.5068 27.3306 69.3297C24.643 68.9962 23.7545 70.1245 26.0227 70.9892C26.8409 71.3013 27.1604 72.058 26.8968 73.0592C26.6683 73.9271 26.8073 74.6377 27.206 74.6377C27.6038 74.6377 27.9298 73.9231 27.9298 73.0497C27.9298 71.3187 28.5186 71.1028 30.2555 72.1953C31.5642 73.0187 34.3213 71.6006 34.3213 70.1047C34.3213 69.5346 34.903 69.3154 35.7195 69.5767C36.8468 69.9371 36.8955 69.8673 35.9704 69.2154C35.0348 68.5556 35.0108 68.1824 35.8401 67.189C36.6654 66.2013 36.6559 65.6987 35.789 64.5251C34.7735 63.1499 34.5355 63.1967 30.969 65.4835ZM14.7473 82.5779C15.0229 83.021 14.4253 83.3664 13.3963 83.36C11.9118 83.3497 11.7856 83.1973 12.7499 82.5779C14.2368 81.6235 14.1537 81.6235 14.7473 82.5779ZM481.329 103.222C481.601 103.659 481.241 104.016 480.53 104.016C479.819 104.016 479.459 103.659 479.731 103.222C480.003 102.786 480.362 102.428 480.53 102.428C480.698 102.428 481.057 102.786 481.329 103.222ZM467.623 111.594C467.363 112.268 466.978 112.649 466.769 112.441C466.56 112.233 466.625 111.681 466.915 111.216C467.703 109.949 468.163 110.195 467.623 111.594ZM465.226 116.358C464.966 117.032 464.582 117.413 464.372 117.205C464.163 116.997 464.228 116.445 464.518 115.98C465.306 114.713 465.766 114.959 465.226 116.358ZM446.575 119.103C446.575 119.539 446.194 119.897 445.729 119.897C445.264 119.897 445.105 119.539 445.377 119.103C445.648 118.666 446.029 118.309 446.223 118.309C446.417 118.309 446.575 118.666 446.575 119.103ZM449.371 119.103C449.643 119.539 449.304 119.897 448.62 119.897C447.935 119.897 447.374 119.539 447.374 119.103C447.374 118.666 447.712 118.309 448.126 118.309C448.54 118.309 449.1 118.666 449.371 119.103ZM396.242 134.983C396.242 135.42 395.882 135.777 395.443 135.777C395.003 135.777 394.644 135.42 394.644 134.983C394.644 134.546 395.003 134.189 395.443 134.189C395.882 134.189 396.242 134.546 396.242 134.983ZM87.3183 142.208C87.6842 142.48 87.415 142.919 86.7191 143.185C85.8075 143.532 85.4536 143.192 85.4536 141.972C85.4536 141.04 85.7236 140.6 86.0528 140.995C86.382 141.39 86.9516 141.936 87.3183 142.208ZM101.216 143.403C100.951 143.667 100.261 143.695 99.6851 143.466C99.0476 143.212 99.2369 143.024 100.168 142.986C101.01 142.952 101.481 143.139 101.216 143.403ZM297.173 146.496C297.173 147.181 296.452 147.687 295.478 147.687C294.06 147.687 293.945 147.491 294.776 146.496C295.323 145.841 296.086 145.305 296.472 145.305C296.857 145.305 297.173 145.841 297.173 146.496ZM209.689 146.893C209.961 147.33 209.601 147.687 208.89 147.687C208.179 147.687 207.819 147.33 208.091 146.893C208.363 146.457 208.722 146.099 208.89 146.099C209.058 146.099 209.417 146.457 209.689 146.893ZM178.131 147.194C178.131 147.358 177.591 147.938 176.932 148.481C175.95 149.291 175.734 149.237 175.734 148.181C175.734 147.473 176.273 146.893 176.932 146.893C177.591 146.893 178.131 147.028 178.131 147.194ZM230.861 147.244C230.861 147.437 230.501 147.814 230.062 148.084C229.623 148.354 229.263 148.196 229.263 147.734C229.263 147.272 229.623 146.893 230.062 146.893C230.501 146.893 230.861 147.051 230.861 147.244ZM195.374 149.275C195.997 149.275 196.506 149.99 196.506 150.864C196.506 151.737 196.301 152.452 196.05 152.452C195.132 152.452 193.705 150.425 193.534 148.878C193.437 148.005 193.557 147.737 193.8 148.283C194.043 148.829 194.752 149.275 195.374 149.275ZM162.152 150.864C162.152 151.887 162.556 152.45 163.151 152.253C163.7 152.071 164.149 151.446 164.149 150.864C164.149 150.281 163.7 149.656 163.151 149.474C162.556 149.277 162.152 149.84 162.152 150.864ZM213.031 151.013C212.776 151.646 212.587 151.457 212.548 150.532C212.514 149.695 212.703 149.227 212.968 149.491C213.233 149.754 213.262 150.44 213.031 151.013ZM215.282 153.246C215.553 153.682 215.214 154.04 214.53 154.04C213.845 154.04 213.284 153.682 213.284 153.246C213.284 152.809 213.622 152.452 214.036 152.452C214.45 152.452 215.01 152.809 215.282 153.246Z" fill="#252525"/>
</svg>
