<svg width="397" height="436" viewBox="0 0 397 436" fill="none" xmlns="http://www.w3.org/2000/svg">
<path d="M362.651 317.614L239.475 104.641C235.662 97.9494 228.729 94.0265 220.987 94.0265C213.361 94.0265 206.428 97.9494 202.615 104.641L169.914 161.057L139.293 107.987C135.481 101.41 128.547 97.3727 120.806 97.3727C113.18 97.3727 106.246 101.41 102.433 107.987L23.8595 243.778C20.0468 250.469 20.0468 258.429 23.8595 265.121C27.6728 271.697 34.6055 275.735 42.3478 275.735H103.705L79.4388 317.614C75.6262 324.191 75.6262 332.151 79.4388 338.843C83.2522 345.535 90.1848 349.457 97.9272 349.457H344.163C351.789 349.457 358.723 345.535 362.651 338.843C366.464 332.151 366.464 324.191 362.651 317.614ZM42.3479 264.198C34.8369 264.198 30.0996 256.007 33.9123 249.546L112.371 113.755C114.219 110.524 117.571 108.91 120.806 108.91C124.156 108.91 127.392 110.524 129.241 113.755L163.328 172.594L110.291 264.198H42.3479ZM344.163 337.92H97.9272C90.4162 337.92 85.679 329.844 89.4916 323.383L116.992 275.735L120.344 269.966L123.695 264.198L169.914 184.131L173.265 178.362L176.616 172.594L212.552 110.41C214.401 107.179 217.752 105.563 220.987 105.563C224.338 105.563 227.573 107.179 229.423 110.41L352.598 323.383C356.296 329.844 351.674 337.92 344.163 337.92Z" fill="black"/>
<path d="M299.446 0C273.331 0 252.07 21.2278 252.07 47.1861C252.07 73.26 273.331 94.4884 299.446 94.4884C325.56 94.4884 346.705 73.26 346.705 47.1861C346.705 21.2278 325.56 0 299.446 0ZM299.446 82.9514C279.686 82.9514 263.625 66.9147 263.625 47.1861C263.625 27.4582 279.686 11.537 299.446 11.537C319.204 11.537 335.15 27.4582 335.15 47.1861C335.15 66.9147 319.204 82.9514 299.446 82.9514Z" fill="black"/>
<path d="M16.08 397.44C18.6933 397.44 20.7733 398.293 22.32 400C23.8933 401.68 24.68 404 24.68 406.96V420H17.88V407.88C17.88 406.387 17.4933 405.227 16.72 404.4C15.9467 403.573 14.9067 403.16 13.6 403.16C12.2933 403.16 11.2533 403.573 10.48 404.4C9.70667 405.227 9.32 406.387 9.32 407.88V420H2.48V397.68H9.32V400.64C10.0133 399.653 10.9467 398.88 12.12 398.32C13.2933 397.733 14.6133 397.44 16.08 397.44ZM39.5931 420.32C37.4065 420.32 35.4331 419.853 33.6731 418.92C31.9398 417.987 30.5665 416.653 29.5531 414.92C28.5665 413.187 28.0731 411.16 28.0731 408.84C28.0731 406.547 28.5798 404.533 29.5931 402.8C30.6065 401.04 31.9931 399.693 33.7531 398.76C35.5131 397.827 37.4865 397.36 39.6731 397.36C41.8598 397.36 43.8331 397.827 45.5931 398.76C47.3531 399.693 48.7398 401.04 49.7531 402.8C50.7665 404.533 51.2731 406.547 51.2731 408.84C51.2731 411.133 50.7531 413.16 49.7131 414.92C48.6998 416.653 47.2998 417.987 45.5131 418.92C43.7531 419.853 41.7798 420.32 39.5931 420.32ZM39.5931 414.4C40.8998 414.4 42.0065 413.92 42.9131 412.96C43.8465 412 44.3131 410.627 44.3131 408.84C44.3131 407.053 43.8598 405.68 42.9531 404.72C42.0731 403.76 40.9798 403.28 39.6731 403.28C38.3398 403.28 37.2331 403.76 36.3531 404.72C35.4731 405.653 35.0331 407.027 35.0331 408.84C35.0331 410.627 35.4598 412 36.3131 412.96C37.1931 413.92 38.2865 414.4 39.5931 414.4ZM66.8184 395.36C65.6184 395.36 64.6318 395.013 63.8584 394.32C63.1118 393.6 62.7384 392.72 62.7384 391.68C62.7384 390.613 63.1118 389.733 63.8584 389.04C64.6318 388.32 65.6184 387.96 66.8184 387.96C67.9918 387.96 68.9518 388.32 69.6984 389.04C70.4718 389.733 70.8584 390.613 70.8584 391.68C70.8584 392.72 70.4718 393.6 69.6984 394.32C68.9518 395.013 67.9918 395.36 66.8184 395.36ZM70.2184 397.68V420H63.3784V397.68H70.2184ZM103.655 397.44C106.429 397.44 108.629 398.28 110.255 399.96C111.909 401.64 112.735 403.973 112.735 406.96V420H105.935V407.88C105.935 406.44 105.549 405.333 104.775 404.56C104.029 403.76 102.989 403.36 101.655 403.36C100.322 403.36 99.2686 403.76 98.4953 404.56C97.7486 405.333 97.3753 406.44 97.3753 407.88V420H90.5753V407.88C90.5753 406.44 90.1886 405.333 89.4153 404.56C88.6686 403.76 87.6286 403.36 86.2953 403.36C84.962 403.36 83.9086 403.76 83.1353 404.56C82.3886 405.333 82.0153 406.44 82.0153 407.88V420H75.1753V397.68H82.0153V400.48C82.7086 399.547 83.6153 398.813 84.7353 398.28C85.8553 397.72 87.122 397.44 88.5353 397.44C90.2153 397.44 91.7086 397.8 93.0153 398.52C94.3486 399.24 95.3886 400.267 96.1353 401.6C96.9086 400.373 97.962 399.373 99.2953 398.6C100.629 397.827 102.082 397.44 103.655 397.44ZM116.159 408.8C116.159 406.507 116.586 404.493 117.439 402.76C118.319 401.027 119.506 399.693 120.999 398.76C122.492 397.827 124.159 397.36 125.999 397.36C127.572 397.36 128.946 397.68 130.119 398.32C131.319 398.96 132.239 399.8 132.879 400.84V397.68H139.719V420H132.879V416.84C132.212 417.88 131.279 418.72 130.079 419.36C128.906 420 127.532 420.32 125.959 420.32C124.146 420.32 122.492 419.853 120.999 418.92C119.506 417.96 118.319 416.613 117.439 414.88C116.586 413.12 116.159 411.093 116.159 408.8ZM132.879 408.84C132.879 407.133 132.399 405.787 131.439 404.8C130.506 403.813 129.359 403.32 127.999 403.32C126.639 403.32 125.479 403.813 124.519 404.8C123.586 405.76 123.119 407.093 123.119 408.8C123.119 410.507 123.586 411.867 124.519 412.88C125.479 413.867 126.639 414.36 127.999 414.36C129.359 414.36 130.506 413.867 131.439 412.88C132.399 411.893 132.879 410.547 132.879 408.84ZM153.148 397.36C154.721 397.36 156.094 397.68 157.268 398.32C158.468 398.96 159.388 399.8 160.028 400.84V397.68H166.868V419.96C166.868 422.013 166.454 423.867 165.628 425.52C164.828 427.2 163.588 428.533 161.908 429.52C160.254 430.507 158.188 431 155.708 431C152.401 431 149.721 430.213 147.668 428.64C145.614 427.093 144.441 424.987 144.148 422.32H150.908C151.121 423.173 151.628 423.84 152.428 424.32C153.228 424.827 154.214 425.08 155.388 425.08C156.801 425.08 157.921 424.667 158.748 423.84C159.601 423.04 160.028 421.747 160.028 419.96V416.8C159.361 417.84 158.441 418.693 157.268 419.36C156.094 420 154.721 420.32 153.148 420.32C151.308 420.32 149.641 419.853 148.148 418.92C146.654 417.96 145.468 416.613 144.588 414.88C143.734 413.12 143.308 411.093 143.308 408.8C143.308 406.507 143.734 404.493 144.588 402.76C145.468 401.027 146.654 399.693 148.148 398.76C149.641 397.827 151.308 397.36 153.148 397.36ZM160.028 408.84C160.028 407.133 159.548 405.787 158.588 404.8C157.654 403.813 156.508 403.32 155.148 403.32C153.788 403.32 152.628 403.813 151.668 404.8C150.734 405.76 150.268 407.093 150.268 408.8C150.268 410.507 150.734 411.867 151.668 412.88C152.628 413.867 153.788 414.36 155.148 414.36C156.508 414.36 157.654 413.867 158.588 412.88C159.548 411.893 160.028 410.547 160.028 408.84ZM192.856 408.48C192.856 409.12 192.816 409.787 192.736 410.48H177.256C177.363 411.867 177.803 412.933 178.576 413.68C179.376 414.4 180.349 414.76 181.496 414.76C183.203 414.76 184.389 414.04 185.056 412.6H192.336C191.963 414.067 191.283 415.387 190.296 416.56C189.336 417.733 188.123 418.653 186.656 419.32C185.189 419.987 183.549 420.32 181.736 420.32C179.549 420.32 177.603 419.853 175.896 418.92C174.189 417.987 172.856 416.653 171.896 414.92C170.936 413.187 170.456 411.16 170.456 408.84C170.456 406.52 170.923 404.493 171.856 402.76C172.816 401.027 174.149 399.693 175.856 398.76C177.563 397.827 179.523 397.36 181.736 397.36C183.896 397.36 185.816 397.813 187.496 398.72C189.176 399.627 190.483 400.92 191.416 402.6C192.376 404.28 192.856 406.24 192.856 408.48ZM185.856 406.68C185.856 405.507 185.456 404.573 184.656 403.88C183.856 403.187 182.856 402.84 181.656 402.84C180.509 402.84 179.536 403.173 178.736 403.84C177.963 404.507 177.483 405.453 177.296 406.68H185.856ZM203.581 408.8C203.581 406.507 204.008 404.493 204.861 402.76C205.741 401.027 206.928 399.693 208.421 398.76C209.914 397.827 211.581 397.36 213.421 397.36C214.994 397.36 216.368 397.68 217.541 398.32C218.741 398.96 219.661 399.8 220.301 400.84V397.68H227.141V420H220.301V416.84C219.634 417.88 218.701 418.72 217.501 419.36C216.328 420 214.954 420.32 213.381 420.32C211.568 420.32 209.914 419.853 208.421 418.92C206.928 417.96 205.741 416.613 204.861 414.88C204.008 413.12 203.581 411.093 203.581 408.8ZM220.301 408.84C220.301 407.133 219.821 405.787 218.861 404.8C217.928 403.813 216.781 403.32 215.421 403.32C214.061 403.32 212.901 403.813 211.941 404.8C211.008 405.76 210.541 407.093 210.541 408.8C210.541 410.507 211.008 411.867 211.941 412.88C212.901 413.867 214.061 414.36 215.421 414.36C216.781 414.36 217.928 413.867 218.861 412.88C219.821 411.893 220.301 410.547 220.301 408.84ZM242.129 413.6L246.969 397.68H254.249L246.329 420H237.889L229.969 397.68H237.289L242.129 413.6ZM255.768 408.8C255.768 406.507 256.195 404.493 257.048 402.76C257.928 401.027 259.115 399.693 260.608 398.76C262.102 397.827 263.768 397.36 265.608 397.36C267.182 397.36 268.555 397.68 269.728 398.32C270.928 398.96 271.848 399.8 272.488 400.84V397.68H279.328V420H272.488V416.84C271.822 417.88 270.888 418.72 269.688 419.36C268.515 420 267.142 420.32 265.568 420.32C263.755 420.32 262.102 419.853 260.608 418.92C259.115 417.96 257.928 416.613 257.048 414.88C256.195 413.12 255.768 411.093 255.768 408.8ZM272.488 408.84C272.488 407.133 272.008 405.787 271.048 404.8C270.115 403.813 268.968 403.32 267.608 403.32C266.248 403.32 265.088 403.813 264.128 404.8C263.195 405.76 262.728 407.093 262.728 408.8C262.728 410.507 263.195 411.867 264.128 412.88C265.088 413.867 266.248 414.36 267.608 414.36C268.968 414.36 270.115 413.867 271.048 412.88C272.008 411.893 272.488 410.547 272.488 408.84ZM287.717 395.36C286.517 395.36 285.53 395.013 284.757 394.32C284.01 393.6 283.637 392.72 283.637 391.68C283.637 390.613 284.01 389.733 284.757 389.04C285.53 388.32 286.517 387.96 287.717 387.96C288.89 387.96 289.85 388.32 290.597 389.04C291.37 389.733 291.757 390.613 291.757 391.68C291.757 392.72 291.37 393.6 290.597 394.32C289.85 395.013 288.89 395.36 287.717 395.36ZM291.117 397.68V420H284.277V397.68H291.117ZM302.914 390.4V420H296.074V390.4H302.914ZM306.511 408.8C306.511 406.507 306.937 404.493 307.791 402.76C308.671 401.027 309.857 399.693 311.351 398.76C312.844 397.827 314.511 397.36 316.351 397.36C317.924 397.36 319.297 397.68 320.471 398.32C321.671 398.96 322.591 399.8 323.231 400.84V397.68H330.071V420H323.231V416.84C322.564 417.88 321.631 418.72 320.431 419.36C319.257 420 317.884 420.32 316.311 420.32C314.497 420.32 312.844 419.853 311.351 418.92C309.857 417.96 308.671 416.613 307.791 414.88C306.937 413.12 306.511 411.093 306.511 408.8ZM323.231 408.84C323.231 407.133 322.751 405.787 321.791 404.8C320.857 403.813 319.711 403.32 318.351 403.32C316.991 403.32 315.831 403.813 314.871 404.8C313.937 405.76 313.471 407.093 313.471 408.8C313.471 410.507 313.937 411.867 314.871 412.88C315.831 413.867 316.991 414.36 318.351 414.36C319.711 414.36 320.857 413.867 321.791 412.88C322.751 411.893 323.231 410.547 323.231 408.84ZM341.859 400.84C342.499 399.8 343.419 398.96 344.619 398.32C345.819 397.68 347.192 397.36 348.739 397.36C350.579 397.36 352.246 397.827 353.739 398.76C355.232 399.693 356.406 401.027 357.259 402.76C358.139 404.493 358.579 406.507 358.579 408.8C358.579 411.093 358.139 413.12 357.259 414.88C356.406 416.613 355.232 417.96 353.739 418.92C352.246 419.853 350.579 420.32 348.739 420.32C347.166 420.32 345.792 420.013 344.619 419.4C343.446 418.76 342.526 417.92 341.859 416.88V420H335.019V390.4H341.859V400.84ZM351.619 408.8C351.619 407.093 351.139 405.76 350.179 404.8C349.246 403.813 348.086 403.32 346.699 403.32C345.339 403.32 344.179 403.813 343.219 404.8C342.286 405.787 341.819 407.133 341.819 408.84C341.819 410.547 342.286 411.893 343.219 412.88C344.179 413.867 345.339 414.36 346.699 414.36C348.059 414.36 349.219 413.867 350.179 412.88C351.139 411.867 351.619 410.507 351.619 408.8ZM369.008 390.4V420H362.168V390.4H369.008ZM395.004 408.48C395.004 409.12 394.964 409.787 394.884 410.48H379.404C379.511 411.867 379.951 412.933 380.724 413.68C381.524 414.4 382.498 414.76 383.644 414.76C385.351 414.76 386.538 414.04 387.204 412.6H394.484C394.111 414.067 393.431 415.387 392.444 416.56C391.484 417.733 390.271 418.653 388.804 419.32C387.338 419.987 385.698 420.32 383.884 420.32C381.698 420.32 379.751 419.853 378.044 418.92C376.338 417.987 375.004 416.653 374.044 414.92C373.084 413.187 372.604 411.16 372.604 408.84C372.604 406.52 373.071 404.493 374.004 402.76C374.964 401.027 376.298 399.693 378.004 398.76C379.711 397.827 381.671 397.36 383.884 397.36C386.044 397.36 387.964 397.813 389.644 398.72C391.324 399.627 392.631 400.92 393.564 402.6C394.524 404.28 395.004 406.24 395.004 408.48ZM388.004 406.68C388.004 405.507 387.604 404.573 386.804 403.88C386.004 403.187 385.004 402.84 383.804 402.84C382.658 402.84 381.684 403.173 380.884 403.84C380.111 404.507 379.631 405.453 379.444 406.68H388.004Z" fill="black"/>
</svg>
